<svg width="56" height="41" viewBox="0 0 56 41" fill="none" xmlns="http://www.w3.org/2000/svg">
<path d="M25.6134 40.9516C26.1184 40.8486 26.4527 40.6321 26.7036 40.2456C26.9278 39.9002 27 39.5972 27 39.002C27 38.2407 26.9214 37.9691 26.5657 37.5014L26.4141 37.3022L26.6053 36.5231C26.7104 36.0946 26.8062 35.7143 26.8181 35.678C26.8353 35.6255 26.0464 35.6119 22.9895 35.6119H19.1393L19.1677 35.7573C19.1833 35.8373 19.2343 36.0574 19.281 36.2464C19.3277 36.4355 19.3963 36.7232 19.4335 36.8859C19.4706 37.0485 19.5165 37.2069 19.5354 37.2378C19.5543 37.2687 19.4841 37.3975 19.3795 37.5238C19.0293 37.9466 18.9766 38.1357 18.9766 38.9699C18.9766 39.6049 18.992 39.7449 19.0849 39.9537C19.2177 40.2522 19.4738 40.5536 19.7375 40.7219C20.1478 40.9836 20.3955 41.0047 22.9971 40.9993C24.3209 40.9966 25.4983 40.9751 25.6134 40.9516V40.9516ZM16.1617 40.9489C16.6969 40.8426 17.1313 40.5007 17.3662 40.0011C17.4846 39.7492 17.5052 39.6274 17.5203 39.091C17.542 38.3194 17.4558 37.9709 17.1529 37.6053C16.9243 37.3293 16.9265 37.3536 17.0779 36.7488C17.1216 36.5743 17.191 36.2887 17.2321 36.1142C17.2732 35.9397 17.324 35.7556 17.3448 35.7051C17.3806 35.6184 17.165 35.6124 13.5271 35.5993C11.4065 35.5917 9.66614 35.5908 9.6596 35.5975C9.64469 35.6126 9.92426 36.7974 9.99454 37.0171C10.0775 37.2765 10.0587 37.3498 9.84153 37.612C9.54464 37.9704 9.45811 38.3241 9.47968 39.0911C9.49477 39.6275 9.51539 39.7493 9.63381 40.0012C9.87725 40.5191 10.2989 40.841 10.8796 40.9523C11.2199 41.0175 15.8312 41.0146 16.1617 40.949V40.9489ZM6.7617 40.9251C7.28483 40.7945 7.69456 40.4494 7.91513 39.9537C8.00802 39.7449 8.02343 39.6049 8.02343 38.9699C8.02343 38.1357 7.97074 37.9465 7.62055 37.5238C7.51586 37.3974 7.44568 37.2687 7.4646 37.2378C7.48352 37.2069 7.52856 37.0485 7.56468 36.8859C7.60081 36.7232 7.68337 36.3819 7.74815 36.1273C7.81293 35.8727 7.85408 35.6524 7.8396 35.6378C7.82512 35.6231 6.09423 35.6173 3.99318 35.6247L0.173082 35.6383L0.377444 36.458C0.492544 36.9196 0.563307 37.3046 0.539451 37.3394C0.0595303 38.0393 3.24362e-07 38.2227 3.24362e-07 39.002C3.24362e-07 39.5972 0.0722277 39.9002 0.296435 40.2456C0.489358 40.5428 0.737318 40.74 1.09884 40.8835C1.31114 40.9679 1.58648 40.9782 3.89826 40.9885C5.9612 40.9976 6.52073 40.9852 6.7617 40.9251ZM26.9648 34.0962C26.9842 34.0766 27 30.7092 27 26.613V19.1653H22.9707H18.9415L18.9548 26.635L18.968 34.1047L22.9488 34.1182C25.1382 34.1257 26.9454 34.1158 26.9648 34.0962L26.9648 34.0962ZM17.5162 28.01L17.5029 21.8888H13.5H9.49708L9.48377 28.01L9.47047 34.1311H13.5H17.5295L17.5162 28.01ZM8.03392 34.0654C8.0477 34.0288 8.0529 31.8929 8.04549 29.3188L8.03198 24.6387H4.02907H0.0261635V29.3717V34.1047L4.01751 34.1182C7.18287 34.129 8.01404 34.118 8.03392 34.0654H8.03392ZM7.72913 23.1447C7.71744 23.1229 7.48059 22.6372 7.20278 22.0653L6.69767 21.0256V19.408V17.7904H4.02907H1.36047V19.3974V21.0044L0.818362 22.0944L0.276256 23.1844H4.01331C6.06869 23.1844 7.74081 23.1666 7.72913 23.1447V23.1447ZM17.2151 20.4055C17.2151 20.3896 16.9797 19.9075 16.6919 19.3343L16.1686 18.292V16.6662V15.0405H13.5H10.8314V16.6662V18.292L10.3081 19.3343C10.0203 19.9075 9.78488 20.3896 9.78488 20.4055C9.78488 20.4215 11.4567 20.4345 13.5 20.4345C15.5433 20.4345 17.2151 20.4215 17.2151 20.4055V20.4055ZM26.686 17.6841C26.686 17.6547 26.4506 17.1552 26.1628 16.5741L25.6395 15.5174V13.9304V12.3434H22.9709H20.3023V13.9569V15.5703L19.7791 16.6269C19.4913 17.2081 19.2558 17.6957 19.2558 17.7105C19.2558 17.7254 20.9276 17.7375 22.9709 17.7375C25.4362 17.7375 26.686 17.7195 26.686 17.6841ZM6.62047 15.4767C6.60166 14.9896 6.56574 14.472 6.54064 14.3265C6.51554 14.1811 6.47981 13.8956 6.46125 13.692C6.38566 12.8631 6.0671 11.0338 5.86687 10.2787C5.80868 10.0592 5.70183 9.6547 5.62943 9.37967C5.55703 9.10465 5.46337 8.76064 5.42131 8.61521C5.37924 8.46979 5.31834 8.25561 5.28597 8.13927C5.2536 8.02293 5.20655 7.86824 5.18141 7.79553C5.15627 7.72282 5.0851 7.48484 5.02325 7.2667C4.96142 7.04856 4.89078 6.81059 4.86628 6.73788C4.84178 6.66516 4.76998 6.42719 4.70672 6.20905C4.64345 5.99091 4.54317 5.75862 4.48385 5.69285C4.35324 5.54803 4.04903 5.45719 3.87029 5.50963C3.57673 5.59576 3.44116 5.76918 3.31512 6.21983C3.27611 6.35933 3.20887 6.59245 3.1657 6.73788C3.12253 6.8833 3.05189 7.12128 3.00872 7.2667C2.96555 7.41213 2.89491 7.6501 2.85174 7.79553C2.66178 8.43548 2.60553 8.6312 2.54017 8.87963C2.50191 9.02505 2.39505 9.42961 2.3027 9.77863C2.10863 10.5121 2.01563 10.922 1.90074 11.5502C1.85553 11.7974 1.79814 12.1068 1.77321 12.2377C1.61332 13.077 1.32031 16.2012 1.39068 16.3163C1.40625 16.3417 2.597 16.3625 4.03681 16.3625H6.65466L6.62047 15.4767ZM16.1161 13.1499C16.116 12.6888 16.0142 11.4522 15.9062 10.5983C15.7011 8.97775 15.3556 7.40122 14.782 5.46869C14.7388 5.32326 14.6682 5.08529 14.625 4.93986C14.5818 4.79443 14.5112 4.55646 14.468 4.41103C14.4249 4.26561 14.3525 4.02169 14.3072 3.86899C14.262 3.71629 14.1998 3.49616 14.1691 3.37982C14.0448 2.90873 13.7066 2.66966 13.3179 2.77814C13.1043 2.83772 12.9108 3.07679 12.8309 3.37982C12.8002 3.49616 12.738 3.71629 12.6928 3.86899C12.6475 4.02169 12.5751 4.26561 12.532 4.41103C12.4888 4.55646 12.4182 4.79443 12.375 4.93986C12.3318 5.08529 12.2612 5.32326 12.218 5.46869C12.0306 6.10016 11.9651 6.34327 11.7266 7.29314C11.4917 8.22902 11.4188 8.57724 11.2287 9.67287C11.0666 10.6071 10.8841 12.4469 10.8839 13.1499L10.8837 13.6126H13.5H16.1163L16.1161 13.1499H16.1161ZM25.6099 10.8154C25.655 10.7419 25.5041 8.85302 25.3562 7.63688C25.2884 7.07951 25.2178 6.678 24.9799 5.49513C24.8702 4.9497 24.5448 3.68621 24.309 2.89065C24.2638 2.73796 24.1914 2.49403 24.1483 2.34861C24.1051 2.20318 24.0344 1.96521 23.9913 1.81978C23.9481 1.67435 23.8775 1.43638 23.8343 1.29095C23.7911 1.14552 23.7232 0.913502 23.6833 0.775345C23.5303 0.245007 23.4513 0.137185 23.1379 0.0309239C23.0003 -0.0157258 22.9231 -0.0109139 22.7617 0.0543608C22.4656 0.174083 22.4116 0.276053 22.1352 1.23807C22.0726 1.45621 22.0012 1.69418 21.9767 1.7669C21.9522 1.83961 21.8811 2.07758 21.8187 2.29572C21.7563 2.51387 21.6835 2.76374 21.6568 2.85099C21.4318 3.58753 21.0121 5.26763 20.9037 5.86531C20.8563 6.12708 20.7948 6.44485 20.7671 6.57146C20.5994 7.33763 20.37 9.58851 20.358 10.5851L20.3547 10.8627H22.9678C24.4474 10.8627 25.5936 10.8422 25.61 10.8154H25.6099Z" fill="#B8B8B8"/>
<path d="M30.3866 40.9516C29.8816 40.8486 29.5473 40.6321 29.2964 40.2456C29.0722 39.9002 29 39.5972 29 39.002C29 38.2407 29.0786 37.9691 29.4343 37.5014L29.5859 37.3022L29.3947 36.5231C29.2896 36.0946 29.1938 35.7143 29.1819 35.678C29.1647 35.6255 29.9536 35.6119 33.0105 35.6119H36.8607L36.8323 35.7573C36.8167 35.8373 36.7657 36.0574 36.719 36.2464C36.6723 36.4355 36.6037 36.7232 36.5665 36.8859C36.5294 37.0485 36.4835 37.2069 36.4646 37.2378C36.4457 37.2687 36.5159 37.3975 36.6205 37.5238C36.9707 37.9466 37.0234 38.1357 37.0234 38.9699C37.0234 39.6049 37.008 39.7449 36.9151 39.9537C36.7823 40.2522 36.5262 40.5536 36.2625 40.7219C35.8522 40.9836 35.6045 41.0047 33.0029 40.9993C31.6791 40.9966 30.5017 40.9751 30.3866 40.9516V40.9516ZM39.8383 40.9489C39.3031 40.8426 38.8687 40.5007 38.6338 40.0011C38.5154 39.7492 38.4948 39.6274 38.4797 39.091C38.458 38.3194 38.5442 37.9709 38.8471 37.6053C39.0757 37.3293 39.0735 37.3536 38.9221 36.7488C38.8784 36.5743 38.809 36.2887 38.7679 36.1142C38.7268 35.9397 38.676 35.7556 38.6552 35.7051C38.6194 35.6184 38.835 35.6124 42.4729 35.5993C44.5935 35.5917 46.3339 35.5908 46.3404 35.5975C46.3553 35.6126 46.0757 36.7974 46.0055 37.0171C45.9225 37.2765 45.9413 37.3498 46.1585 37.612C46.4554 37.9704 46.5419 38.3241 46.5203 39.0911C46.5052 39.6275 46.4846 39.7493 46.3662 40.0012C46.1228 40.5191 45.7011 40.841 45.1204 40.9523C44.7801 41.0175 40.1688 41.0146 39.8383 40.949V40.9489ZM49.2383 40.9251C48.7152 40.7945 48.3054 40.4494 48.0849 39.9537C47.992 39.7449 47.9766 39.6049 47.9766 38.9699C47.9766 38.1357 48.0293 37.9465 48.3795 37.5238C48.4841 37.3974 48.5543 37.2687 48.5354 37.2378C48.5165 37.2069 48.4714 37.0485 48.4353 36.8859C48.3992 36.7232 48.3166 36.3819 48.2519 36.1273C48.1871 35.8727 48.1459 35.6524 48.1604 35.6378C48.1749 35.6231 49.9058 35.6173 52.0068 35.6247L55.8269 35.6383L55.6226 36.458C55.5075 36.9196 55.4367 37.3046 55.4605 37.3394C55.9405 38.0393 56 38.2227 56 39.002C56 39.5972 55.9278 39.9002 55.7036 40.2456C55.5106 40.5428 55.2627 40.74 54.9012 40.8835C54.6889 40.9679 54.4135 40.9782 52.1017 40.9885C50.0388 40.9976 49.4793 40.9852 49.2383 40.9251ZM29.0352 34.0962C29.0158 34.0766 29 30.7092 29 26.613V19.1653H33.0293H37.0585L37.0452 26.635L37.032 34.1047L33.0512 34.1182C30.8618 34.1257 29.0546 34.1158 29.0352 34.0962L29.0352 34.0962ZM38.4838 28.01L38.4971 21.8888H42.5H46.5029L46.5162 28.01L46.5295 34.1311H42.5H38.4705L38.4838 28.01ZM47.9661 34.0654C47.9523 34.0288 47.9471 31.8929 47.9545 29.3188L47.968 24.6387H51.9709H55.9738V29.3717V34.1047L51.9825 34.1182C48.8171 34.129 47.986 34.118 47.9661 34.0654H47.9661ZM48.2709 23.1447C48.2826 23.1229 48.5194 22.6372 48.7972 22.0653L49.3023 21.0256V19.408V17.7904H51.9709H54.6395V19.3974V21.0044L55.1816 22.0944L55.7237 23.1844H51.9867C49.9313 23.1844 48.2592 23.1666 48.2709 23.1447V23.1447ZM38.7849 20.4055C38.7849 20.3896 39.0203 19.9075 39.3081 19.3343L39.8314 18.292V16.6662V15.0405H42.5H45.1686V16.6662V18.292L45.6919 19.3343C45.9797 19.9075 46.2151 20.3896 46.2151 20.4055C46.2151 20.4215 44.5433 20.4345 42.5 20.4345C40.4567 20.4345 38.7849 20.4215 38.7849 20.4055V20.4055ZM29.314 17.6841C29.314 17.6547 29.5494 17.1552 29.8372 16.5741L30.3605 15.5174V13.9304V12.3434H33.0291H35.6977V13.9569V15.5703L36.2209 16.6269C36.5087 17.2081 36.7442 17.6957 36.7442 17.7105C36.7442 17.7254 35.0724 17.7375 33.0291 17.7375C30.5638 17.7375 29.314 17.7195 29.314 17.6841ZM49.3795 15.4767C49.3983 14.9896 49.4343 14.472 49.4594 14.3265C49.4845 14.1811 49.5202 13.8956 49.5388 13.692C49.6143 12.8631 49.9329 11.0338 50.1331 10.2787C50.1913 10.0592 50.2982 9.6547 50.3706 9.37967C50.443 9.10465 50.5366 8.76064 50.5787 8.61521C50.6208 8.46979 50.6817 8.25561 50.714 8.13927C50.7464 8.02293 50.7935 7.86824 50.8186 7.79553C50.8437 7.72282 50.9149 7.48484 50.9767 7.2667C51.0386 7.04856 51.1092 6.81059 51.1337 6.73788C51.1582 6.66516 51.23 6.42719 51.2933 6.20905C51.3565 5.99091 51.4568 5.75862 51.5162 5.69285C51.6468 5.54803 51.951 5.45719 52.1297 5.50963C52.4233 5.59576 52.5588 5.76918 52.6849 6.21983C52.7239 6.35933 52.7911 6.59245 52.8343 6.73788C52.8775 6.8833 52.9481 7.12128 52.9913 7.2667C53.0344 7.41213 53.1051 7.6501 53.1483 7.79553C53.3382 8.43548 53.3945 8.6312 53.4598 8.87963C53.4981 9.02505 53.605 9.42961 53.6973 9.77863C53.8914 10.5121 53.9844 10.922 54.0993 11.5502C54.1445 11.7974 54.2019 12.1068 54.2268 12.2377C54.3867 13.077 54.6797 16.2012 54.6093 16.3163C54.5938 16.3417 53.403 16.3625 51.9632 16.3625H49.3453L49.3795 15.4767ZM39.8839 13.1499C39.884 12.6888 39.9858 11.4522 40.0938 10.5983C40.2989 8.97775 40.6444 7.40122 41.218 5.46869C41.2612 5.32326 41.3318 5.08529 41.375 4.93986C41.4182 4.79443 41.4888 4.55646 41.532 4.41103C41.5751 4.26561 41.6475 4.02169 41.6928 3.86899C41.738 3.71629 41.8002 3.49616 41.8309 3.37982C41.9552 2.90873 42.2934 2.66966 42.6821 2.77814C42.8957 2.83772 43.0892 3.07679 43.1691 3.37982C43.1998 3.49616 43.262 3.71629 43.3072 3.86899C43.3525 4.02169 43.4249 4.26561 43.468 4.41103C43.5112 4.55646 43.5818 4.79443 43.625 4.93986C43.6682 5.08529 43.7388 5.32326 43.782 5.46869C43.9694 6.10016 44.0349 6.34327 44.2734 7.29314C44.5083 8.22902 44.5812 8.57724 44.7713 9.67287C44.9334 10.6071 45.1159 12.4469 45.1161 13.1499L45.1163 13.6126H42.5H39.8837L39.8839 13.1499H39.8839ZM30.3901 10.8154C30.345 10.7419 30.4959 8.85302 30.6438 7.63688C30.7116 7.07951 30.7822 6.678 31.0201 5.49513C31.1298 4.9497 31.4552 3.68621 31.691 2.89065C31.7362 2.73796 31.8086 2.49403 31.8517 2.34861C31.8949 2.20318 31.9656 1.96521 32.0087 1.81978C32.0519 1.67435 32.1225 1.43638 32.1657 1.29095C32.2089 1.14552 32.2768 0.913502 32.3167 0.775345C32.4697 0.245007 32.5487 0.137185 32.8621 0.0309239C32.9997 -0.0157258 33.0769 -0.0109139 33.2383 0.0543608C33.5344 0.174083 33.5884 0.276053 33.8648 1.23807C33.9274 1.45621 33.9988 1.69418 34.0233 1.7669C34.0478 1.83961 34.1189 2.07758 34.1813 2.29572C34.2437 2.51387 34.3165 2.76374 34.3432 2.85099C34.5682 3.58753 34.9879 5.26763 35.0963 5.86531C35.1437 6.12708 35.2052 6.44485 35.2329 6.57146C35.4006 7.33763 35.63 9.58851 35.642 10.5851L35.6453 10.8627H33.0322C31.5526 10.8627 30.4064 10.8422 30.39 10.8154H30.3901Z" fill="#B8B8B8"/>
</svg>
