<svg width="34" height="43" viewBox="0 0 34 43" fill="none" xmlns="http://www.w3.org/2000/svg">
<rect y="22.6667" width="8.25514" height="3.9177" fill="#B8B8B8"/>
<rect y="30.9218" width="8.25514" height="3.9177" fill="#B8B8B8"/>
<rect x="25.7449" y="30.9218" width="8.25514" height="3.9177" fill="#B8B8B8"/>
<rect x="25.7449" y="22.6667" width="8.25514" height="3.9177" fill="#B8B8B8"/>
<rect x="22.2469" y="7.5835" width="8.25514" height="3.9177" transform="rotate(-66.7278 22.2469 7.5835)" fill="#B8B8B8"/>
<rect width="8.25514" height="3.9177" transform="matrix(-0.395101 -0.918638 -0.918638 0.395101 11.7577 7.72342)" fill="#B8B8B8"/>
<path d="M3.14812 3.98763C6.02887 9.27801 4.67148 14.3251 1.53906 17.8395V21.1276H9.93412V28.1583H1.53906V29.3827H9.93412V36.4485H1.53906V39.8066C2.37857 42.2551 28.5432 43.5144 32.4609 39.8765C32.4609 36.4485 32.4609 39.8765 32.4609 36.4485H24.0658V29.3827H32.4609V28.1234H24.0658V21.1276H32.4609V17.8395C30.8759 15.5796 27.161 10.7694 30.8518 4.05759C29.8724 3.63784 30.8518 4.05759 29.8724 3.63784L26.5843 11.2634L20.0782 8.53496L23.3662 0.909442L22.6666 0.629608C20.9876 3.98763 14.4474 5.94056 11.3333 0.629609C10.6337 0.9794 11.3333 0.629608 10.6337 0.979401L13.7119 8.67488L7.34565 11.3333L4.12754 3.56788L3.14812 3.98763Z" fill="#B8B8B8"/>
</svg>
