<svg width="88" height="27" viewBox="0 0 88 27" fill="none" xmlns="http://www.w3.org/2000/svg">
<path d="M48.4158 26.2954C45.8426 24.2623 43.6674 21.7743 41.4651 18.3455C40.2238 16.4129 39.2774 14.4432 38.5678 12.3153L38.3136 11.5531L38.1003 11.5528C37.9829 11.5527 37.819 11.617 37.7361 11.6958L37.5852 11.839L37.0242 11.7369L36.4633 11.6348L35.8906 11.9048C35.0867 12.2838 34.5867 12.3844 33.4235 12.4009C32.3235 12.4164 32.104 12.3558 31.285 11.8106L30.8646 11.5308L30.4895 11.8421C28.9649 13.107 26.8015 16.2494 26.4515 17.7075L26.3517 18.123L26.0328 18.2925C25.8574 18.3857 25.3309 18.5544 24.8628 18.6674L24.0117 18.8727L23.5411 18.7673C22.4852 18.5309 21.9881 18.0375 21.7883 17.0278L21.6878 16.5204L22.2674 15.3073C23.1254 13.5115 24.4917 10.9189 24.8325 10.4398L25.131 10.0203L24.6735 9.66247C24.4219 9.46571 24.097 9.26768 23.9517 9.22245L23.6873 9.14021L22.1454 9.69041C20.1239 10.4117 16.6987 11.703 12.7176 13.2446C8.93508 14.7093 0.838143 17.5249 0.741263 17.4092C0.704283 17.365 0.586463 15.998 0.479439 14.3714C0.372413 12.7448 0.208074 10.2948 0.114239 8.92686C-0.0096446 7.12088 -0.0300309 6.40646 0.0397991 6.3182C0.221341 6.08876 1.04408 5.74835 1.99732 5.50829L2.95155 5.26798H4.59668C5.51788 5.26798 7.46308 5.16922 9.01715 5.04355C10.5436 4.92011 12.6458 4.76725 13.6887 4.70386L15.5849 4.58862L16.4201 4.83181C16.8795 4.96557 17.4932 5.12174 17.784 5.17884L18.3126 5.28266L19.414 4.99588C20.0198 4.83815 21.0613 4.53754 21.7284 4.32785L22.9415 3.9466L24.6092 2.4354C25.5264 1.60424 26.3017 0.924207 26.3321 0.924207C26.3624 0.924207 26.4468 0.98659 26.5194 1.06284L26.6516 1.20147H37.0459H47.4401L47.7087 0.993518L47.9773 0.785569L56.4501 0.816907L64.9228 0.848302L66.1637 1.25594L67.4046 1.66358H70.7568H74.1091L74.4455 2.10258C75.2378 3.13652 75.8682 3.82946 76.2831 4.12254L76.7272 4.4362H79.6449C81.4518 4.4362 82.6634 4.39933 82.8274 4.33935C83.0352 4.26336 83.1442 4.119 83.3331 3.66929C84.2805 1.41448 84.6154 0.530285 84.6154 0.283563V0H85.4084H86.2013V2.12149V4.24298L86.4877 4.28645C86.6452 4.31036 86.9664 4.36423 87.2015 4.40617L87.629 4.48242L87.8424 5.01586C88.0035 5.41853 88.0338 5.59231 87.9663 5.72472C87.8365 5.97919 87.3482 6.11861 86.8364 6.04739L86.3977 5.98635L86.0702 6.57448C85.8901 6.89795 85.7329 7.17378 85.7208 7.18743C85.7087 7.20106 85.4176 7.08671 85.0738 6.93328L84.4488 6.65431L79.4437 6.65637L74.4387 6.65843L74.1806 7.02431L73.9226 7.39019L73.6358 7.16075L73.3491 6.93133H69.7347H66.1203L66.0624 7.25479L66.0046 7.57828H60.3286H54.6526L53.5262 8.22089C52.9068 8.57433 52.2262 8.90443 52.014 8.95446C51.4855 9.07901 50.8711 8.94171 50.4187 8.59793L50.0498 8.31764H47.5492H45.0485L44.9914 8.47355C44.9024 8.71701 45.1133 10.2252 45.3643 11.1399C45.8003 12.7287 46.9249 14.8692 48.3002 16.7279C49.0643 17.7606 50.3451 19.0811 51.5274 20.0551C52.0519 20.4871 52.5731 20.9238 52.6856 21.0255L52.8901 21.2103L52.4744 21.7831C52.2458 22.0982 51.6028 23.1267 51.0455 24.0688C50.4882 25.0108 49.8692 26.0558 49.67 26.3908L49.3078 27L48.4158 26.2954ZM35.6365 11.3791C35.9224 11.1433 36.1951 10.2812 36.1187 9.85444C36.086 9.67115 35.9295 9.37981 35.7665 9.19853L35.4733 8.87239H34.0096C32.2827 8.87239 31.973 8.95739 31.6753 9.51298C31.2666 10.2757 31.5272 11.1291 32.2751 11.4768C32.3494 11.5113 33.0888 11.5425 33.9182 11.5461L35.4263 11.5526L35.6365 11.3791V11.3791Z" fill="#B8B8B8"/>
</svg>
