<svg width="86" height="15" viewBox="0 0 86 15" fill="none" xmlns="http://www.w3.org/2000/svg">
<path d="M28.887 14.6918L28.5167 14.4228L28.6057 12.8034L28.6948 11.184L28.1514 10.5422C27.5157 9.79137 26.1594 9.0742 26.0454 9.42867C26.0004 9.56886 25.622 9.65376 25.0424 9.65376C23.5015 9.65376 7.71022 11.515 2.82915 12.2719L1.27255 12.5132L1.04917 12.0443C0.926317 11.7863 0.639993 11.0894 0.412904 10.4956L0 9.41604L0.472367 8.99468C0.732163 8.76293 0.944724 8.49257 0.944724 8.39387C0.944724 8.29518 1.09497 8.16497 1.2786 8.10453C1.46223 8.04408 1.65486 7.82655 1.70667 7.62112C1.75849 7.41568 1.96556 7.20293 2.16687 7.14834C2.36818 7.09376 2.5329 6.93339 2.5329 6.79199C2.5329 6.6506 2.73142 6.44111 2.97405 6.32646C3.21669 6.21181 3.41521 6.00841 3.41521 5.87444C3.41521 5.74047 3.57403 5.528 3.76814 5.40229C3.96225 5.27658 4.12107 5.08277 4.12107 4.9716C4.12107 4.86044 4.26003 4.64193 4.42988 4.48603C4.74507 4.19671 5.71746 4.13933 14.5324 3.88987C25.0177 3.59314 27.0671 3.57499 27.3016 3.77681C27.4864 3.9358 27.5964 3.91958 27.7653 3.70854C27.9035 3.53585 28.2939 3.43027 28.8034 3.42777C29.6451 3.42362 30.8764 2.95398 31.2357 2.50004C31.3479 2.35827 31.6284 1.75415 31.859 1.15755C32.0897 0.560947 32.3664 0.0424191 32.4739 0.00526348C32.5813 -0.0318783 32.8866 0.131572 33.1522 0.368525L33.6352 0.799342L33.3451 1.83428C33.1855 2.40349 33.0036 3.00798 32.9409 3.1776L32.8268 3.48598L35.2778 3.38899L37.7289 3.29199L37.9377 3.58821L38.1466 3.88442L38.5155 3.53824L38.8843 3.19206L39.203 3.49118L39.5218 3.79031L39.8118 3.48952L40.1019 3.18873L40.3814 3.42934L40.661 3.66996L41.1076 3.42208L41.5542 3.1742L41.7077 3.43179L41.8612 3.68937L42.3079 3.4415C42.6587 3.24679 42.8096 3.24104 43.0114 3.41473C43.2124 3.5878 43.3448 3.58624 43.6207 3.40753C43.9025 3.22501 44.0266 3.22536 44.2403 3.40961L44.5075 3.63959L44.9344 3.34954L45.3612 3.05949L52.5782 3.06364C64.8125 3.07118 72.4012 3.79872 79.5591 5.65042C82.526 6.41793 86 7.69632 86 8.02057C86 8.30835 84.3707 9.33335 82.2328 10.3905C79.9123 11.5379 77.4782 12.3773 74.9711 12.8946L73.3829 13.2223L67.9125 13.2101C64.3415 13.2021 61.2283 13.0895 58.9461 12.8859C53.5224 12.402 50.8827 12.3266 47.8839 12.5701C43.9243 12.8916 40.4356 13.672 37.605 14.8694L37.2962 15V14.4674C37.2962 14.1744 37.0926 13.5111 36.8438 12.9933C36.0932 11.4313 34.3016 10.5041 32.6534 10.8247C31.986 10.9546 30.5905 11.8339 30.5905 12.1246C30.5905 12.3317 29.4065 14.9608 29.3132 14.9608C29.2825 14.9608 29.0907 14.8397 28.887 14.6918ZM3.09251 10.9979C3.48854 10.6262 3.50978 9.96097 3.13793 9.57534C2.78081 9.20499 2.37858 9.21026 1.9733 9.59062C1.57198 9.96726 1.55951 10.5271 1.94262 10.9661C2.305 11.3814 2.67307 11.3915 3.09251 10.9979Z" fill="#B8B8B8"/>
</svg>
