<svg width="36" height="36" viewBox="0 0 36 36" fill="none" xmlns="http://www.w3.org/2000/svg">
<path fill-rule="evenodd" clip-rule="evenodd" d="M8.77376 1.97148C7.74359 -0.27033 9.5404 -0.577099 10.2112 0.933149C11.2653 0.673589 15.3237 1.65996 16.8953 1.07473C18.8598 0.343195 19.0994 0.0128144 20.6566 0.201598C22.0941 0.375863 22.166 0.838752 23.5794 1.61749C24.0724 1.88905 24.6096 2.34902 25.2085 2.27823C26.4064 2.13664 27.3631 1.45067 28.0595 2.13664C28.8022 3.05699 27.5324 4.8461 27.0533 5.27517C26.5262 5.74713 23.7357 7.88293 23.3638 8.24852C22.9387 8.66637 22.3337 9.09805 23.6274 8.34291C24.6575 7.84738 25.5919 8.81489 25.6637 9.05085C26.095 8.81487 27.0772 7.75296 27.2449 7.46979C27.796 5.69996 29.449 6.76187 28.7063 7.98894C28.2511 8.79127 27.5564 9.47561 27.3408 9.5936C28.1074 9.75879 29.0418 10.1364 30.2636 10.8915C32.9468 13.0626 30.623 14.8796 29.9282 12.8737C29.3293 11.4814 25.9992 10.7263 25.8075 10.8679C25.5679 11.1983 24.8731 12.4018 23.1243 11.4814C26.4304 14.5256 28.1553 17.145 29.3053 18.7968C29.627 19.2589 33.1544 24.2479 32.9947 29.8879C32.827 35.811 26.7179 35.9997 22.7889 35.9997C18.5724 35.9997 12.3913 36.0112 10.6424 35.8817C6.4978 35.575 3.19166 34.4187 3 29.7227C3 23.7288 7.00225 17.9658 7.48006 17.2629C8.4144 15.7291 10.7383 13.3693 12.008 12.2602C12.583 11.7175 12.8226 11.4814 12.8226 10.5847C11.2653 11.1747 10.6185 9.31045 12.583 9.16887C11.9601 6.90348 9.18103 5.91236 8.77376 1.97148ZM10.6424 34.3951C4.69192 34.2547 2.20883 31.0789 6.64154 21.5106C10.4508 13.7296 14.5475 13.7233 14.284 10.3487C16.1287 9.92537 20.8003 9.9816 20.9921 10.2544C20.6566 12.5906 24.2165 12.8737 29.3053 21.5106C35.1988 33.9231 28.4907 34.6075 22.7889 34.3951C21.2894 34.3392 14.1163 34.3951 10.6424 34.3951ZM19.89 1.5467C18.028 2.21817 17.1379 2.55547 16.2187 2.67365C15.026 2.82701 13.7843 2.61141 10.307 2.27823C10.5161 4.26842 11.4302 5.27668 12.3423 6.28274C12.9984 7.00639 13.6535 7.7289 14.0444 8.81488C14.1014 8.80822 14.1577 8.80165 14.2132 8.79516C17.304 8.43412 18.0313 8.34915 21.2556 8.69689C21.5503 7.72503 22.8319 6.77343 24.0814 5.84568C25.168 5.03886 26.2304 4.25008 26.5981 3.48173C24.4481 4.16894 23.3051 3.33083 22.2437 2.55258C21.5192 2.02133 20.8328 1.51798 19.89 1.5467Z" fill="white"/>
<path d="M6.64154 21.5106C2.20883 31.0789 4.69192 34.2547 10.6424 34.3951C14.1163 34.3951 21.2894 34.3392 22.7889 34.3951C28.4907 34.6075 35.1988 33.9231 29.3053 21.5106C24.2165 12.8737 20.6566 12.5906 20.9921 10.2544C20.8003 9.9816 16.1287 9.92537 14.284 10.3487C14.5475 13.7233 10.4508 13.7296 6.64154 21.5106Z" fill="#D9D9D9"/>
<path d="M16.2187 2.67365C17.1379 2.55547 18.028 2.21817 19.89 1.5467C20.8328 1.51798 21.5192 2.02133 22.2437 2.55258C23.3051 3.33083 24.4481 4.16894 26.5981 3.48173C26.2304 4.25008 25.168 5.03886 24.0814 5.84568C22.8319 6.77343 21.5503 7.72503 21.2556 8.69689C18.0313 8.34915 17.304 8.43412 14.2132 8.79516L14.0444 8.81488C13.6535 7.7289 12.9984 7.00639 12.3423 6.28274C11.4302 5.27668 10.5161 4.26842 10.307 2.27823C13.7843 2.61141 15.026 2.82701 16.2187 2.67365Z" fill="#D9D9D9"/>
<path d="M17.6916 30.0909V19.1818H18.3904V30.0909H17.6916ZM19.7072 22.6719C19.6674 22.2997 19.4998 22.0099 19.2044 21.8026C18.9118 21.5952 18.5311 21.4915 18.0623 21.4915C17.7328 21.4915 17.4501 21.5412 17.2143 21.6406C16.9785 21.7401 16.7981 21.875 16.6731 22.0455C16.5481 22.2159 16.4842 22.4105 16.4814 22.6293C16.4814 22.8111 16.5225 22.9687 16.6049 23.1023C16.6902 23.2358 16.8052 23.3494 16.9501 23.4432C17.095 23.5341 17.2555 23.6108 17.4316 23.6733C17.6078 23.7358 17.7853 23.7884 17.9643 23.831L18.7825 24.0355C19.112 24.1122 19.4288 24.2159 19.7328 24.3466C20.0396 24.4773 20.3137 24.642 20.5552 24.8409C20.7995 25.0398 20.9927 25.2798 21.1348 25.5611C21.2768 25.8423 21.3478 26.1719 21.3478 26.5497C21.3478 27.0611 21.2172 27.5114 20.9558 27.9006C20.6944 28.2869 20.3166 28.5895 19.8223 28.8082C19.3308 29.0241 18.7356 29.1321 18.0368 29.1321C17.3578 29.1321 16.7683 29.027 16.2683 28.8168C15.7711 28.6065 15.3819 28.2997 15.1007 27.8963C14.8223 27.4929 14.6717 27.0014 14.649 26.4219H16.2044C16.2271 26.7259 16.3208 26.9787 16.4856 27.1804C16.6504 27.3821 16.8649 27.5327 17.1291 27.6321C17.3961 27.7315 17.6944 27.7812 18.024 27.7812C18.3677 27.7812 18.6689 27.7301 18.9274 27.6278C19.1887 27.5227 19.3933 27.3778 19.541 27.1932C19.6887 27.0057 19.764 26.7869 19.7669 26.5369C19.764 26.3097 19.6973 26.1222 19.5666 25.9744C19.4359 25.8239 19.2527 25.6989 19.0169 25.5994C18.7839 25.4972 18.5112 25.4062 18.1987 25.3267L17.2058 25.071C16.487 24.8864 15.9189 24.6065 15.5012 24.2315C15.0865 23.8537 14.8791 23.3523 14.8791 22.7273C14.8791 22.2131 15.0183 21.7628 15.2967 21.3764C15.5779 20.9901 15.96 20.6903 16.443 20.4773C16.926 20.2614 17.4728 20.1534 18.0836 20.1534C18.7029 20.1534 19.2456 20.2614 19.7115 20.4773C20.1802 20.6903 20.5481 20.9872 20.8152 21.3679C21.0822 21.7457 21.22 22.1804 21.2285 22.6719H19.7072Z" fill="black"/>
</svg>
