<svg width="36" height="36" viewBox="0 0 36 36" fill="none" xmlns="http://www.w3.org/2000/svg">
<path fill-rule="evenodd" clip-rule="evenodd" d="M8.77376 1.97148C7.74359 -0.27033 9.5404 -0.577099 10.2112 0.933149C11.2653 0.673589 15.3237 1.65996 16.8953 1.07473C18.8598 0.343195 19.0994 0.0128144 20.6566 0.201598C22.0941 0.375863 22.166 0.838752 23.5794 1.61749C24.0724 1.88905 24.6096 2.34902 25.2085 2.27823C26.4064 2.13664 27.3631 1.45067 28.0595 2.13664C28.8022 3.05699 27.5324 4.8461 27.0533 5.27517C26.5262 5.74713 23.7357 7.88293 23.3638 8.24852C22.9387 8.66637 22.3337 9.09805 23.6274 8.34291C24.6575 7.84738 25.5919 8.81489 25.6637 9.05085C26.095 8.81487 27.0772 7.75296 27.2449 7.46979C27.796 5.69996 29.449 6.76187 28.7063 7.98894C28.2511 8.79127 27.5564 9.47561 27.3408 9.5936C28.1074 9.75879 29.0418 10.1364 30.2636 10.8915C32.9468 13.0626 30.623 14.8796 29.9282 12.8737C29.3293 11.4814 25.9992 10.7263 25.8075 10.8679C25.5679 11.1983 24.8731 12.4018 23.1243 11.4814C26.4304 14.5256 28.1553 17.145 29.3053 18.7968C29.627 19.2589 33.1544 24.2479 32.9947 29.8879C32.827 35.811 26.7179 35.9997 22.7889 35.9997C18.5724 35.9997 12.3913 36.0112 10.6424 35.8817C6.4978 35.575 3.19166 34.4187 3 29.7227C3 23.7288 7.00225 17.9658 7.48006 17.2629C8.4144 15.7291 10.7383 13.3693 12.008 12.2602C12.583 11.7175 12.8226 11.4814 12.8226 10.5847C11.2653 11.1747 10.6185 9.31045 12.583 9.16887C11.9601 6.90348 9.18103 5.91236 8.77376 1.97148ZM10.6424 34.3951C4.69192 34.2547 2.20883 31.0789 6.64154 21.5106C10.4508 13.7296 14.5475 13.7233 14.284 10.3487C16.1287 9.92537 20.8003 9.9816 20.9921 10.2544C20.6566 12.5906 24.2165 12.8737 29.3053 21.5106C35.1988 33.9231 28.4907 34.6075 22.7889 34.3951C21.2894 34.3392 14.1163 34.3951 10.6424 34.3951ZM19.89 1.5467C18.028 2.21817 17.1379 2.55547 16.2187 2.67365C15.026 2.82701 13.7843 2.61141 10.307 2.27823C10.5161 4.26842 11.4302 5.27668 12.3423 6.28274C12.9984 7.00639 13.6535 7.7289 14.0444 8.81488C14.1014 8.80822 14.1577 8.80165 14.2132 8.79516C17.304 8.43412 18.0313 8.34915 21.2556 8.69689C21.5503 7.72503 22.8319 6.77343 24.0814 5.84568C25.168 5.03886 26.2304 4.25008 26.5981 3.48173C24.4481 4.16894 23.3051 3.33083 22.2437 2.55258C21.5192 2.02133 20.8328 1.51798 19.89 1.5467Z" fill="white"/>
<path d="M6.64154 21.5106C2.20883 31.0789 4.69192 34.2547 10.6424 34.3951C14.1163 34.3951 21.2894 34.3392 22.7889 34.3951C28.4907 34.6075 35.1988 33.9231 29.3053 21.5106C24.2165 12.8737 20.6566 12.5906 20.9921 10.2544C20.8003 9.9816 16.1287 9.92537 14.284 10.3487C14.5475 13.7233 10.4508 13.7296 6.64154 21.5106Z" fill="#D9D9D9"/>
<path d="M16.2187 2.67365C17.1379 2.55547 18.028 2.21817 19.89 1.5467C20.8328 1.51798 21.5192 2.02133 22.2437 2.55258C23.3051 3.33083 24.4481 4.16894 26.5981 3.48173C26.2304 4.25008 25.168 5.03886 24.0814 5.84568C22.8319 6.77343 21.5503 7.72503 21.2556 8.69689C18.0313 8.34915 17.304 8.43412 14.2132 8.79516L14.0444 8.81488C13.6535 7.7289 12.9984 7.00639 12.3423 6.28274C11.4302 5.27668 10.5161 4.26842 10.307 2.27823C13.7843 2.61141 15.026 2.82701 16.2187 2.67365Z" fill="#D9D9D9"/>
<path d="M16.4371 20.2727L18.3846 24.8239L17.2809 25.5653L14.7837 20.2727H16.4371ZM17.6261 24.7983L19.5607 20.2727H21.2141L18.7127 25.5653L17.6261 24.7983ZM18.7638 24.4062V29H17.1957V24.4062H18.7638ZM20.5536 24.5511V25.5099H15.3207V24.5511H20.5536ZM20.5536 26.2386V27.1974H15.3207V26.2386H20.5536Z" fill="black"/>
</svg>
