<svg width="28" height="28" viewBox="0 0 28 28" fill="none" xmlns="http://www.w3.org/2000/svg">
<path fill-rule="evenodd" clip-rule="evenodd" d="M7 5.47536V3.19396C7 1.43158 8.37266 0 10.0625 0H17.9375C19.6273 0 21 1.43158 21 3.19396V5.47536H24.5C26.4305 5.47536 28 7.11227 28 9.1256V23.7266C28 25.7399 26.4305 27.3768 24.5 27.3768H21H7H3.5C1.56953 27.3768 0 25.7399 0 23.7266V9.1256C0 7.11227 1.56953 5.47536 3.5 5.47536H7ZM9.625 5.47536V3.19396C9.625 2.94301 9.82187 2.73768 10.0625 2.73768H17.9375C18.1781 2.73768 18.375 2.94301 18.375 3.19396V5.47536H9.625Z" fill="white"/>
<path d="M14 17.5625C16.4844 17.5625 18.5 15.4209 18.5 12.7812C18.5 10.1416 16.4844 8 14 8C11.5156 8 9.5 10.1416 9.5 12.7812C9.5 15.4209 11.5156 17.5625 14 17.5625ZM11.0406 18.625C8.25625 18.625 6 21.0223 6 23.9807C6 24.5451 6.43125 25 6.95938 25H21.0406C21.5719 25 22 24.5418 22 23.9807C22 21.0223 19.7438 18.625 16.9594 18.625H11.0406Z" fill="#535353"/>
</svg>
