<svg width="28" height="28" viewBox="0 0 28 28" fill="none" xmlns="http://www.w3.org/2000/svg">
<path d="M6.5435 5.33154L17.7075 2.15867L17.116 0.911551C16.7302 0.101963 15.7844 -0.231397 15.0101 0.17042L5.01477 5.33154H6.5435Z" fill="white"/>
<path d="M21.1735 2.24794C21.0364 2.24794 20.8964 2.26878 20.7592 2.30747L18.1361 3.05455L10.1267 5.33152H19.2191H23.1823L22.688 3.45935C22.4994 2.72714 21.865 2.24794 21.1735 2.24794Z" fill="white"/>
<path d="M24.8168 6.47743H24.4596H23.971H23.4824H19.7649H6.0949H4.30329H2.79457H2.51454H1.57444C1.07725 6.47743 0.63435 6.71555 0.345749 7.09355C0.214307 7.26618 0.114297 7.46561 0.0571486 7.68586C0.0228595 7.82278 0 7.96862 0 8.11447V8.31091V10.1771V26.3629C0 27.2678 0.705785 28 1.57159 28H24.8139C25.6826 28 26.3855 27.2648 26.3855 26.3629V22.5H16.5C15.0256 22.5 13.5 20.9889 13.5 19.5V17.511V17.0021V16.4931V15.365C13.5 14.612 13.5 15.365 13.5 15C13.5 13 15.557 12.0953 16.18 12.0209C16.2828 12.0089 16.3914 12 16.4971 12H25.0768H25.5654H26.0541H26.3884V8.11447C26.3884 7.21261 25.6854 6.47743 24.8168 6.47743Z" fill="white"/>
<path d="M27.4913 14.1536C27.3341 14.0018 27.1484 13.8887 26.9398 13.8143C26.7798 13.7578 26.6084 13.725 26.4312 13.725H26.3912H26.3598H25.8711H24.1138H17.056C16.1873 13.725 15.4844 14.4602 15.4844 15.3621V16.1776V16.6866V17.1955V19.0112C15.4844 19.916 16.1902 20.6482 17.056 20.6482H26.3883H26.4283C26.6084 20.6482 26.7769 20.6155 26.937 20.5589C27.1456 20.4875 27.3313 20.3684 27.4884 20.2196C27.8028 19.922 27.9999 19.4904 27.9999 19.0112V15.3621C28.0028 14.8829 27.8056 14.4513 27.4913 14.1536ZM20.3391 17.5111C20.3391 17.9635 19.9877 18.3296 19.5534 18.3296H19.0304C18.5961 18.3296 18.2447 17.9635 18.2447 17.5111V16.9664C18.2447 16.7044 18.3618 16.4723 18.5475 16.3235C18.6818 16.2163 18.8504 16.1478 19.0304 16.1478H19.1619H19.5505C19.9848 16.1478 20.3363 16.5139 20.3363 16.9664V17.5111H20.3391Z" fill="white"/>
</svg>
