<svg width="28" height="28" viewBox="0 0 28 28" fill="none" xmlns="http://www.w3.org/2000/svg">
<path fill-rule="evenodd" clip-rule="evenodd" d="M14 0C9.79812 4.09043 3.99462 4.02551 0 2.84058C0 24.1929 5.76201 25.7593 13.1423 27.7656C13.4259 27.8427 13.7119 27.9205 14 28V0Z" fill="white"/>
<path d="M28 2.84058C24.0054 4.02551 18.2019 4.09043 14 0V28C21.7867 25.8504 28 25.0133 28 2.84058Z" fill="#A3A3A3"/>
<path fill-rule="evenodd" clip-rule="evenodd" d="M14 4C17.3015 7.06783 21.8614 7.01913 25 6.13043C25 22.1446 20.4727 23.3195 14.6739 24.8242C14.4511 24.882 14.2264 24.9403 14 25V4Z" fill="white"/>
<path d="M3 6.13043C6.13863 7.01913 10.6985 7.06783 14 4V25C7.88191 23.3878 3 22.76 3 6.13043Z" fill="#A3A3A3"/>
</svg>
