<svg width="24" height="27" viewBox="0 0 24 27" fill="none" xmlns="http://www.w3.org/2000/svg">
<path d="M10.0324 26.9681C9.6564 26.9003 9.40752 26.7578 9.22071 26.5032C9.05378 26.2757 9 26.0762 9 25.6842C9 25.1829 9.05852 25.004 9.32337 24.6961L9.43623 24.5648L9.29391 24.0518C9.21563 23.7696 9.14433 23.5192 9.13545 23.4952C9.12264 23.4607 9.71003 23.4517 11.986 23.4517H14.8527L14.8316 23.5475C14.82 23.6002 14.782 23.7451 14.7472 23.8696C14.7124 23.9941 14.6614 24.1836 14.6337 24.2907C14.606 24.3978 14.5719 24.5021 14.5578 24.5225C14.5437 24.5428 14.596 24.6276 14.6739 24.7108C14.9347 24.9892 14.9739 25.1138 14.9739 25.6631C14.9739 26.0813 14.9624 26.1735 14.8933 26.311C14.7944 26.5075 14.6037 26.7061 14.4073 26.8169C14.1019 26.9892 13.9174 27.0031 11.9804 26.9996C10.9947 26.9977 10.1181 26.9836 10.0324 26.9681ZM9.02621 22.4536C9.0118 22.4407 9 20.2231 9 17.5256V12.6211H12H15L14.9901 17.5401L14.9802 22.4592L12.0163 22.4681C10.3862 22.473 9.04063 22.4665 9.02621 22.4536Z" fill="white"/>
<path d="M9.23376 11.6456C9.23376 11.6263 9.40907 11.2973 9.62335 10.9146L10.0129 10.2188V9.1737L10.035 7.12236C10.0015 7.0739 10.1137 5.83004 10.2239 5.02917C10.2744 4.66212 10.3269 4.39771 10.504 3.61874C10.5857 3.25956 10.8281 2.42751 11.0036 1.9036L11.1233 1.54664L11.2402 1.19839L11.357 0.850139C11.3892 0.75437 11.4398 0.601574 11.4694 0.510593C11.5834 0.161346 11.6422 0.0903413 11.8755 0.0203645C11.978 -0.010356 12.0355 -0.0071872 12.1557 0.0357986C12.3761 0.11464 12.4163 0.181791 12.6221 0.815314C12.6687 0.958968 12.7219 1.11568 12.7401 1.16357C12.7583 1.21145 12.8113 1.36816 12.8577 1.51182C12.9042 1.65547 12.9585 1.82002 12.9783 1.87748C13.1458 2.36252 13.4583 3.46893 13.539 3.86252C13.5743 4.03491 13.6201 4.24417 13.6408 4.32755C13.7656 4.8321 13.9364 6.31438 13.9453 6.97067L13.9478 7.1535L13.9868 9.19111V10.2536L14.3764 10.9495C14.5907 11.3322 14.766 11.6533 14.766 11.663C14.766 11.6728 13.5212 11.6808 11.9999 11.6808C10.1644 11.6808 9.23376 11.6689 9.23376 11.6456Z" fill="white"/>
<path d="M19.0324 26.9681C18.6564 26.9003 18.4075 26.7578 18.2207 26.5032C18.0538 26.2757 18 26.0762 18 25.6842C18 25.1829 18.0585 25.004 18.3234 24.6961L18.4362 24.5648L18.2939 24.0518C18.2156 23.7696 18.1443 23.5192 18.1355 23.4952C18.1226 23.4607 18.71 23.4517 20.986 23.4517H23.8527L23.8316 23.5475C23.82 23.6002 23.782 23.7451 23.7472 23.8696C23.7124 23.9941 23.6614 24.1836 23.6337 24.2907C23.606 24.3978 23.5719 24.5021 23.5578 24.5225C23.5437 24.5428 23.596 24.6276 23.6739 24.7108C23.9347 24.9892 23.9739 25.1138 23.9739 25.6631C23.9739 26.0813 23.9624 26.1735 23.8933 26.311C23.7944 26.5075 23.6037 26.7061 23.4073 26.8169C23.1019 26.9892 22.9174 27.0031 20.9804 26.9996C19.9947 26.9977 19.1181 26.9836 19.0324 26.9681ZM18.0262 22.4536C18.0118 22.4407 18 20.2231 18 17.5256V12.6211H21H24L23.9901 17.5401L23.9802 22.4592L21.0163 22.4681C19.3862 22.473 18.0406 22.4665 18.0262 22.4536Z" fill="white"/>
<path d="M18.2338 11.6456C18.2338 11.6263 18.4091 11.2973 18.6233 10.9146L19.0129 10.2188V9.1737L19.035 7.12236C19.0015 7.0739 19.1137 5.83004 19.2239 5.02917C19.2744 4.66212 19.3269 4.39771 19.504 3.61874C19.5857 3.25956 19.8281 2.42751 20.0036 1.9036L20.1233 1.54664L20.2402 1.19839L20.357 0.850139C20.3892 0.75437 20.4398 0.601574 20.4694 0.510593C20.5834 0.161346 20.6422 0.0903413 20.8755 0.0203645C20.978 -0.010356 21.0355 -0.0071872 21.1557 0.0357986C21.3761 0.11464 21.4163 0.181791 21.6221 0.815314C21.6687 0.958968 21.7219 1.11568 21.7401 1.16357C21.7583 1.21145 21.8113 1.36816 21.8577 1.51182C21.9042 1.65547 21.9585 1.82002 21.9783 1.87748C22.1458 2.36252 22.4583 3.46893 22.539 3.86252C22.5743 4.03491 22.6201 4.24417 22.6408 4.32755C22.7656 4.8321 22.9364 6.31438 22.9453 6.97067L22.9478 7.1535L22.9868 9.19111V10.2536L23.3764 10.9495C23.5907 11.3322 23.766 11.6533 23.766 11.663C23.766 11.6728 22.5212 11.6808 20.9999 11.6808C19.1644 11.6808 18.2338 11.6689 18.2338 11.6456Z" fill="white"/>
<path d="M1.03242 26.9681C0.6564 26.9003 0.40752 26.7578 0.220711 26.5032C0.0537768 26.2757 0 26.0762 0 25.6842C0 25.1829 0.0585194 25.004 0.323374 24.6961L0.436231 24.5648L0.293908 24.0518C0.21563 23.7696 0.144326 23.5192 0.135455 23.4952C0.122644 23.4607 0.710034 23.4517 2.98603 23.4517H5.85274L5.83158 23.5475C5.81995 23.6002 5.78198 23.7451 5.74721 23.8696C5.71244 23.9941 5.66136 24.1836 5.63371 24.2907C5.60605 24.3978 5.57189 24.5021 5.55781 24.5225C5.54371 24.5428 5.59597 24.6276 5.67392 24.7108C5.93465 24.9892 5.97389 25.1138 5.97389 25.6631C5.97389 26.0813 5.96242 26.1735 5.89325 26.311C5.79436 26.5075 5.6037 26.7061 5.40734 26.8169C5.10187 26.9892 4.91739 27.0031 2.98039 26.9996C1.99472 26.9977 1.11813 26.9836 1.03242 26.9681ZM0.0262148 22.4536C0.0117992 22.4407 0 20.2231 0 17.5256V12.6211H3H6L5.99012 17.5401L5.98024 22.4592L3.01633 22.4681C1.38618 22.473 0.0406333 22.4665 0.0262148 22.4536Z" fill="white"/>
<path d="M0.233756 11.6456C0.233756 11.6263 0.409074 11.2973 0.62335 10.9146L1.01294 10.2188V9.1737L1.03497 7.12236C1.00146 7.0739 1.11374 5.83004 1.22392 5.02917C1.27441 4.66212 1.32693 4.39771 1.50405 3.61874C1.58572 3.25956 1.82806 2.42751 2.00359 1.9036L2.12328 1.54664L2.24016 1.19839L2.35704 0.850139C2.38918 0.75437 2.43976 0.601574 2.46944 0.510593C2.58338 0.161346 2.64219 0.0903413 2.87553 0.0203645C2.97797 -0.010356 3.03549 -0.0071872 3.15567 0.0357986C3.37611 0.11464 3.41629 0.181791 3.62208 0.815314C3.66875 0.958968 3.72185 1.11568 3.74009 1.16357C3.75833 1.21145 3.81127 1.36816 3.85774 1.51182C3.90421 1.65547 3.95846 1.82002 3.97831 1.87748C4.1458 2.36252 4.45832 3.46893 4.539 3.86252C4.57434 4.03491 4.62013 4.24417 4.64076 4.32755C4.76558 4.8321 4.93639 6.31438 4.94534 6.97067L4.94783 7.1535L4.98679 9.19111V10.2536L5.37638 10.9495C5.59066 11.3322 5.76598 11.6533 5.76598 11.663C5.76598 11.6728 4.52123 11.6808 2.99987 11.6808C1.16437 11.6808 0.233756 11.6689 0.233756 11.6456Z" fill="white"/>
</svg>
