<svg width="40" height="39" viewBox="0 0 40 39" fill="none" xmlns="http://www.w3.org/2000/svg">
<path d="M19.4476 38.3794C19.1613 38.0309 18.4849 37.2139 17.9444 36.5638C17.404 35.9137 16.8918 35.2934 16.8062 35.1853C16.6617 35.0029 15.0164 33.0173 13.6155 31.3347C13.2841 30.9366 12.3975 29.8664 11.6454 28.9565C10.8934 28.0465 9.99776 26.9646 9.65522 26.5523C9.31268 26.14 8.83978 25.57 8.60433 25.2856C8.36888 25.0012 8.04083 24.6054 7.87532 24.406C7.70982 24.2066 7.14264 23.5217 6.61493 22.884C6.08721 22.2463 5.37424 21.3858 5.03054 20.9717C2.10174 17.443 2.09507 17.4347 1.67528 16.7548C1.3712 16.2623 0.94748 15.446 0.88353 15.2296C0.862529 15.1585 0.828062 15.077 0.806935 15.0486C0.78581 15.0202 0.697395 14.7875 0.610459 14.5316C0.315758 13.664 0.159854 12.946 0.082869 12.1016C0.0517585 11.7604 0.0159807 11.3691 0.00336288 11.2321C-0.00926087 11.0952 0.0147713 10.5949 0.0567727 10.1205C0.195852 8.54932 0.513478 7.38622 1.15367 6.10388C2.42161 3.56411 4.53519 1.67093 7.22359 0.666906C7.50212 0.562887 7.81169 0.456783 7.91153 0.431119C8.54346 0.268674 8.76239 0.219828 9.15626 0.15341C10.7794 -0.120294 12.4993 -0.0261659 14.0833 0.423055C15.1949 0.738288 16.6622 1.47461 17.6028 2.18923C18.2199 2.65804 19.0847 3.49183 19.5411 4.05805C19.772 4.34454 19.9769 4.57894 19.9964 4.57894C20.0159 4.57894 20.2022 4.3665 20.4105 4.10685C21.163 3.16874 22.3021 2.17252 23.2954 1.58378C25.3112 0.389069 27.3976 -0.123721 29.6248 0.028134C30.6068 0.0950851 31.0662 0.170489 32.0801 0.431119C32.7536 0.604259 33.9166 1.12485 34.7056 1.60639C35.8277 2.29127 36.9509 3.29593 37.7191 4.30185C38.5401 5.37703 39.3199 6.94825 39.6015 8.09468C39.8445 9.084 40.0474 10.7336 39.9903 11.2548C39.9766 11.3793 39.9399 11.7546 39.9088 12.0889C39.7633 13.6508 39.3355 14.951 38.4289 16.5867L38.2927 16.8323H36.7942H35.2957L35.2949 13.8724C35.2945 12.2444 35.2755 10.8832 35.2528 10.8476C35.22 10.7961 34.1198 10.7854 29.9245 10.7959L24.6376 10.809L24.6242 13.8203L24.6109 16.8315L21.5902 16.8448L18.5696 16.8582L18.5553 22.0542C18.5475 24.9121 18.5537 27.3026 18.5693 27.3666L18.5975 27.483H21.6046H24.6117V30.4709V33.4589L24.0355 34.1547C23.7186 34.5374 23.3627 34.9691 23.2446 35.114C23.1265 35.259 22.7133 35.7592 22.3265 36.2256C21.9396 36.6921 21.2671 37.5041 20.8321 38.0302C20.397 38.5562 20.0246 38.9926 20.0046 38.9999C19.9846 39.0071 19.7339 38.7279 19.4476 38.3794L19.4476 38.3794ZM27.3479 27.7802L27.3345 24.7686L24.3135 24.7552L21.2924 24.7419V22.1572V19.5725H24.2444C25.868 19.5725 27.2333 19.5584 27.2784 19.5411C27.3519 19.513 27.3605 19.1983 27.3605 16.5166V13.5234H29.9537H32.5469V16.5166C32.5469 19.1983 32.5554 19.513 32.6289 19.5411C32.674 19.5584 34.0393 19.5725 35.6629 19.5725H38.6149V22.1572V24.7419L35.5939 24.7552L32.5728 24.7686L32.5594 27.7802L32.546 30.7919H29.9537H27.3613L27.3479 27.7802Z" fill="#B8B8B8"/>
</svg>
