<svg width="60" height="36" viewBox="0 0 60 36" fill="none" xmlns="http://www.w3.org/2000/svg">
<path d="M24.285 35.9438C24.2263 35.8882 23.8064 35.8256 23.3519 35.8045C22.1704 35.7497 22.1494 35.7183 21.5498 33.1071C21.4377 32.6188 21.3019 32.1254 21.2482 32.0105C21.1493 31.799 21.1301 31.7105 20.9205 30.4962C20.856 30.1228 20.7282 29.4179 20.6365 28.9297C20.3456 27.3814 20.3002 26.9268 20.291 25.4705L20.282 24.0479L19.8689 23.9833C19.3258 23.8983 19.239 23.7759 19.1121 22.9165C18.975 21.989 18.9718 18.8011 19.1067 17.653C19.2082 16.789 19.6761 15.0865 19.8664 14.8883C19.9188 14.8338 19.9618 14.4689 19.9618 14.0776C19.9618 13.6862 20.0195 13.2755 20.0901 13.165C20.1881 13.0113 20.1892 12.9071 20.0947 12.7225C20.0265 12.5898 19.9568 12.3673 19.9397 12.2282C19.9055 11.951 19.6417 11.7919 19.6417 12.0485C19.6417 12.3268 19.422 12.3621 17.8331 12.3391C16.9784 12.3267 15.8948 12.3667 15.4251 12.428L14.5711 12.5394L14.2965 12.2231L14.0219 11.9067H10.4242H6.8266L6.72908 11.6558C6.67545 11.5178 6.58426 11.3762 6.52644 11.3413C6.46859 11.3063 6.38874 11.1326 6.34893 10.9553C6.30911 10.7779 6.23787 10.6727 6.19059 10.7215C6.11555 10.7989 5.86929 11.9439 5.68866 13.0555C5.65598 13.2565 5.5429 13.529 5.43734 13.6609C5.33179 13.7928 5.21439 14.039 5.17646 14.208C5.13855 14.377 5.06315 14.542 5.00895 14.5748C4.95478 14.6075 4.91042 14.7098 4.91042 14.802C4.91042 14.8942 4.7423 15.3162 4.5368 15.7398C4.33131 16.1633 4.16318 16.572 4.16318 16.6479C4.16318 16.7239 4.0551 16.9453 3.923 17.14C3.7909 17.3347 3.57566 17.7088 3.4447 17.9713C3.31374 18.2339 3.08025 18.5148 2.92583 18.5957C2.57823 18.7777 0.720833 18.7898 0.293559 18.6129L0 18.4913L0.00460699 11.4654L0.00920812 4.43959L0.298424 4.11487C0.642678 3.72837 0.890024 3.59207 1.48421 3.46146C1.82601 3.38632 1.96244 3.39751 2.07753 3.51011C2.19014 3.62027 2.56521 3.65633 3.59848 3.65633H4.96997L4.93053 3.25212C4.8858 2.79293 5.12259 2.25843 5.44576 2.08922C5.56368 2.02748 5.65815 1.87071 5.65815 1.73678C5.65815 1.17305 6.3845 0.979029 7.03733 1.36839C7.29647 1.52295 7.49778 1.5675 7.73119 1.52196C7.91203 1.48667 8.14229 1.44436 8.24288 1.42793C8.49797 1.38628 8.81903 1.08245 8.96012 0.749205C9.0271 0.590983 9.2764 0.365995 9.53031 0.234604L9.98146 0.00114097L29.0527 1.48945e-05C42.3692 -0.000810823 48.2148 0.0326536 48.4251 0.110853C48.5907 0.172451 48.9725 0.481839 49.2737 0.798387L49.8212 1.37393L50.5608 1.34438C51.678 1.29977 52.6274 1.7386 52.6274 2.29964C52.6274 2.46466 52.6754 2.62872 52.7341 2.66422C52.7928 2.69971 52.8409 2.88293 52.8409 3.07136C52.8409 3.33986 52.9015 3.44099 53.1213 3.53895L53.4017 3.66394L53.3421 4.09843C53.3054 4.36625 53.3414 4.67015 53.4354 4.89066C53.5194 5.08741 53.5881 5.3513 53.5881 5.47708C53.5881 5.60939 53.7213 5.80208 53.9041 5.93429L54.22 6.1628H56.9784C58.9815 6.1628 59.7719 6.19712 59.8649 6.28812C60.0483 6.46749 60.0435 9.33404 59.8596 9.48229C59.7793 9.54701 58.7178 9.6041 57.1946 9.62562L54.663 9.66138L54.4934 9.82743C54.382 9.93651 54.3122 10.228 54.2899 10.6773C54.2713 11.0533 54.223 11.4133 54.1827 11.4772C54.0344 11.7118 53.7038 11.5823 53.3569 11.1538C52.9233 10.6182 52.1517 9.90604 51.8582 9.77065L51.6423 9.67106L51.4312 9.95464C51.315 10.1106 51.0067 10.3606 50.7459 10.5101C50.4851 10.6596 50.2013 10.9152 50.1152 11.0781L49.9587 11.3742V18.1027V24.8311L49.8022 24.9581C49.6092 25.1149 48.9428 25.0276 48.1973 24.7479C47.9038 24.6378 47.3928 24.4802 47.0619 24.3977C45.9317 24.116 45.2708 23.6083 44.7659 22.634L44.4836 22.0892L44.5446 20.1906C44.5782 19.1465 44.6572 18.1979 44.7202 18.0827C44.7954 17.9452 44.8348 16.6376 44.8348 14.2746V10.6759L44.6659 10.6125C44.5731 10.5776 42.6636 10.5493 40.4227 10.5496L36.3483 10.5501L36.3452 11.2815L36.3422 12.0128L35.9479 12.3308C35.7018 12.5293 35.5149 12.7939 35.4505 13.0349C35.3938 13.2473 35.2909 13.6425 35.2217 13.9133C35.0833 14.4544 34.8329 14.6767 34.2563 14.7699C34.0569 14.8022 32.5247 14.8781 30.8515 14.9386L27.8091 15.0485L27.6098 15.2421L27.4104 15.4357L27.3963 18.0314C27.3866 19.8235 27.4204 20.6918 27.5053 20.8362C27.573 20.9513 27.6849 21.5857 27.754 22.2461L27.8798 23.4468L27.6577 23.9515C27.4285 24.4723 27.3672 25.0119 27.5262 25.108C27.5761 25.1382 27.6463 25.5287 27.6823 25.9758C27.7872 27.2798 28.5003 31.7357 28.6794 32.2064C29.0856 33.2746 29.3682 33.8722 29.525 33.9948C29.6056 34.0578 29.6729 34.4304 29.6946 34.9347L29.7307 35.7702L28.5031 35.8488C26.0183 36.008 24.3932 36.0446 24.2865 35.9438H24.285ZM28.9985 12.969C28.9013 12.8639 28.8218 12.7445 28.8218 12.7035C28.8218 12.6625 28.7258 12.5281 28.6083 12.4048C28.4909 12.2815 28.3948 12.1162 28.3948 12.0375C28.3948 11.9588 28.3467 11.9235 28.2879 11.9591C28.1636 12.0342 28.264 12.8328 28.4225 13.0294C28.4803 13.1012 28.6734 13.1599 28.8515 13.1599H29.1752L28.9985 12.969ZM33.2943 12.8756C33.4765 12.7192 33.6255 12.5104 33.6255 12.4116C33.6255 12.1838 34.04 11.489 34.1759 11.489C34.2322 11.489 34.2635 11.2892 34.2454 11.0451L34.2126 10.6013L32.1043 10.573L29.996 10.5446V10.7822C29.996 10.9128 30.1327 11.1459 30.2998 11.3002C30.4669 11.4545 30.6714 11.7128 30.7542 11.8742C30.8371 12.0357 31.0412 12.391 31.2078 12.6639L31.5108 13.1599H32.2369H32.963L33.2943 12.8756ZM0.719123 6.87121C0.697486 6.56773 0.679529 6.78939 0.679299 7.36378C0.679023 7.93818 0.696716 8.18648 0.718661 7.91557C0.740528 7.64466 0.740761 7.1747 0.71917 6.87121H0.719123Z" fill="#B8B8B8"/>
</svg>
