<svg width="28" height="28" viewBox="0 0 28 28" fill="none" xmlns="http://www.w3.org/2000/svg">
<path d="M13.6133 27.5545C13.4129 27.3043 12.9394 26.7177 12.5611 26.2509C12.1828 25.7842 11.8242 25.3388 11.7643 25.2613C11.6632 25.1303 10.5115 23.7047 9.53086 22.4967C9.29884 22.2109 8.67827 21.4425 8.15181 20.7892C7.62535 20.1359 6.99843 19.3592 6.75866 19.0632C6.51888 18.7672 6.18785 18.3579 6.02303 18.1538C5.85821 17.9496 5.62858 17.6654 5.51273 17.5223C5.39688 17.3791 4.99985 16.8874 4.63045 16.4295C4.26105 15.9717 3.76197 15.3539 3.52138 15.0566C1.47122 12.5232 1.46655 12.5172 1.1727 12.0291C0.959842 11.6755 0.663236 11.0895 0.618471 10.934C0.60377 10.883 0.579644 10.8245 0.564855 10.8041C0.550067 10.7837 0.488176 10.6167 0.427322 10.4329C0.22103 9.81007 0.111898 9.29454 0.0580083 8.68832C0.036231 8.44333 0.0111865 8.16243 0.00235401 8.06409C-0.00648261 7.96575 0.0103399 7.60662 0.0397409 7.26602C0.137096 6.13797 0.359435 5.30293 0.807567 4.38228C1.69513 2.55885 3.17463 1.19964 5.05652 0.478804C5.25148 0.404124 5.46818 0.327947 5.53807 0.309521C5.98042 0.192894 6.13368 0.157825 6.40938 0.110141C7.54555 -0.0863653 8.74952 -0.0187858 9.85833 0.303732C10.6364 0.530053 11.6635 1.0587 12.3219 1.57175C12.7539 1.90834 13.3593 2.50696 13.6788 2.91347C13.8404 3.11916 13.9838 3.28744 13.9975 3.28744C14.0111 3.28744 14.1416 3.13492 14.2873 2.9485C14.8141 2.27499 15.6114 1.55976 16.3068 1.13707C17.7179 0.279331 19.1783 -0.0888256 20.7374 0.0201987C21.4248 0.0682662 21.7463 0.122402 22.4561 0.309521C22.9275 0.433827 23.7416 0.807586 24.2939 1.1533C25.0794 1.64501 25.8656 2.36631 26.4033 3.08851C26.9781 3.86043 27.5239 4.98849 27.7211 5.81156C27.8912 6.52184 28.0332 7.70616 27.9932 8.0804C27.9836 8.16977 27.958 8.43923 27.9362 8.67921C27.8343 9.80055 27.5348 10.734 26.9002 11.9084L26.8049 12.0847H25.7559H24.707L24.7064 9.95966C24.7061 8.79086 24.6928 7.81361 24.6769 7.788C24.654 7.75104 23.8839 7.74337 20.9472 7.75088L17.2463 7.76033L17.237 9.92224L17.2276 12.0841L15.1131 12.0937L12.9987 12.1033L12.9887 15.8338C12.9832 17.8856 12.9876 19.6019 12.9985 19.6478L13.0182 19.7313H15.1232H17.2282V21.8766V24.0218L16.8249 24.5213C16.603 24.7961 16.3539 25.106 16.2712 25.2101C16.1885 25.3142 15.8993 25.6733 15.6285 26.0082C15.3577 26.343 14.887 26.926 14.5824 27.3037C14.2779 27.6814 14.0173 27.9947 14.0032 27.9999C13.9892 28.0051 13.8138 27.8047 13.6133 27.5545ZM19.1436 19.9448L19.1342 17.7826L17.0194 17.773L14.9047 17.7634V15.9077V14.0521H16.9711C18.1076 14.0521 19.0633 14.0419 19.0949 14.0295C19.1464 14.0094 19.1523 13.7834 19.1523 11.8581V9.7091H20.9676H22.7828V11.8581C22.7828 13.7834 22.7888 14.0094 22.8402 14.0295C22.8718 14.0419 23.8275 14.0521 24.9641 14.0521H27.0305V15.9077V17.7634L24.9157 17.773L22.801 17.7826L22.7916 19.9448L22.7822 22.107H20.9676H19.1529L19.1436 19.9448Z" fill="white"/>
</svg>
