<svg width="28" height="28" viewBox="0 0 28 28" fill="none" xmlns="http://www.w3.org/2000/svg">
<path d="M1.35026 27.9389C0.614479 27.6985 0.0822687 27.0237 0.0173339 26.2489C-0.0698359 25.2088 0.660425 24.287 1.68028 24.1497C1.94124 24.1145 1.95166 24.1052 2.41104 23.4934C3.54421 21.9842 4.88504 20.6906 6.34214 19.7007C6.64254 19.4966 6.88337 19.2941 6.88337 19.2455C6.88337 19.1973 6.33217 18.6084 5.65847 17.9368C4.98478 17.2651 4.36844 16.6061 4.28884 16.4722C4.10674 16.166 4.04791 15.4947 4.17632 15.1882C4.47191 14.4824 5.28251 14.1749 5.89186 14.5374C6.02502 14.6167 6.60834 15.1579 7.18813 15.7402C7.76792 16.3225 8.28265 16.7989 8.33198 16.7989C8.38131 16.7989 8.85618 16.2939 9.38724 15.6767C10.5553 14.3192 10.5098 14.3805 10.4692 14.2184C10.4478 14.1333 9.10488 12.9392 6.65533 10.8273C3.16912 7.8217 2.86472 7.54544 2.74989 7.28294C2.19606 6.01683 0 0.522739 0 0.40325C0 0.209134 0.179213 0.0294796 0.372855 0.0294796C0.455801 0.0294796 2.10582 0.670875 4.03957 1.4548L7.55547 2.88012L10.6959 6.50784C13.4916 9.73737 13.8538 10.1356 13.9958 10.1356C14.0835 10.1356 14.199 10.0916 14.2525 10.0378C14.3059 9.98399 15.7146 8.35299 17.383 6.41332C20.3646 2.94692 20.422 2.88438 20.7414 2.7532C20.9202 2.67979 22.5028 2.02355 24.2583 1.29488C26.8882 0.203295 27.4817 -0.0243536 27.629 0.0019682C27.832 0.0382378 27.9776 0.210625 27.9776 0.414851C27.9776 0.49105 27.3352 2.1375 26.55 4.07363L25.1224 7.59385L21.332 10.8991C18.4965 13.3716 17.5415 14.2347 17.5415 14.3248C17.5415 14.4824 17.6255 14.5907 18.7 15.8172C19.1999 16.3877 19.6481 16.8544 19.6962 16.8544C19.7443 16.8544 20.2971 16.3449 20.9246 15.722C21.5522 15.0992 22.1456 14.5495 22.2433 14.5004C22.6442 14.2991 23.2519 14.4485 23.5874 14.8307C23.7638 15.0316 23.9253 15.4814 23.9253 15.7717C23.9253 15.8675 23.8854 16.0816 23.8367 16.2474C23.754 16.5287 23.6581 16.6396 22.4157 17.8908C21.3974 18.9163 21.0945 19.2526 21.1307 19.3173C21.1568 19.3638 21.3903 19.5436 21.6496 19.7168C23.0717 20.6664 24.6809 22.2385 25.7534 23.7261C25.9228 23.9611 26.0938 24.1389 26.1641 24.1532C26.2303 24.1667 26.3844 24.1938 26.5065 24.2134C27.051 24.3007 27.6532 24.8228 27.8691 25.3946C28.2268 26.3422 27.8308 27.3641 26.935 27.8053C26.6091 27.9658 26.5104 27.9878 26.1179 27.9878C25.7256 27.9878 25.6267 27.9657 25.3016 27.8056C25.0661 27.6896 24.8407 27.5223 24.6813 27.3448C24.4437 27.0805 24.2028 26.5803 24.2028 26.3513C24.2028 26.1154 24.078 25.9614 23.6085 25.618C22.151 24.552 20.6548 23.0091 19.728 21.6165C19.5296 21.3184 19.3386 21.0746 19.3034 21.0746C19.2682 21.0746 18.6389 21.6711 17.9048 22.4002C17.1707 23.1292 16.4915 23.7657 16.3955 23.8145C15.9768 24.0275 15.4192 23.9967 15.0353 23.7396C14.6743 23.4978 14.525 23.2409 14.4979 22.8147C14.4581 22.1905 14.5293 22.0783 15.7453 20.848C16.3363 20.25 16.8195 19.7378 16.819 19.7097C16.8173 19.6101 16.723 19.5217 15.4381 18.416C14.4669 17.5803 14.1031 17.2987 13.9948 17.2988C13.8869 17.2988 13.5178 17.5832 12.5455 18.4153C11.828 19.0293 11.2172 19.5818 11.188 19.6431C11.1418 19.7405 11.2737 19.8894 12.2282 20.8172C13.0322 21.5987 13.3506 21.9458 13.4318 22.1296C13.8007 22.9641 13.1978 23.9566 12.3195 23.9608C11.7346 23.9636 11.6296 23.8895 10.1838 22.4547C9.44973 21.7262 8.81103 21.1301 8.7645 21.1301C8.71796 21.1301 8.51448 21.3737 8.31231 21.6715C7.27726 23.196 5.8658 24.6193 4.08605 25.9333C3.9738 26.0161 3.91532 26.1327 3.85559 26.3924C3.69576 27.0875 3.29575 27.6099 2.73224 27.8593C2.4011 28.0059 1.68202 28.0473 1.35026 27.9389Z" fill="white"/>
</svg>
