<svg width="58" height="36" viewBox="0 0 58 36" fill="none" xmlns="http://www.w3.org/2000/svg">
<path d="M3.46361 35.3077L3.53366 34.6154L2.40224 34.5029C0.920866 34.3555 0.194893 33.6784 0.0375706 32.2973C-0.156294 30.5955 0.3232 29.5549 3.30524 25.2064C6.66349 20.3093 8.24995 17.3317 8.60482 15.2598C9.08577 12.4517 8.49819 11.2077 6.12876 10.0177C5.34114 9.62215 4.65066 9.22475 4.59435 9.1346C4.34 8.72738 4.13779 1.9026 4.3691 1.53226C4.45641 1.39248 4.88541 1.2768 5.32244 1.2752C6.52364 1.27037 7.00932 1.08112 7.27024 0.514495L7.50715 0H8.36879H9.23043L9.36551 0.532546L9.50059 1.06509H31.625H53.7494L54.5177 0.747469C55.0032 0.546715 55.3344 0.507523 55.4178 0.640961C55.4903 0.757074 56.0206 0.852077 56.5962 0.852077H57.6428L57.8031 2.28995C57.8913 3.08077 57.9716 5.0219 57.9817 6.60356L58 9.47929L57.6066 10.2616C57.3903 10.6919 57.0512 11.1091 56.8531 11.1888C56.6551 11.2684 54.0711 11.4203 51.111 11.5264C48.1508 11.6325 44.3833 11.8065 42.7387 11.9131L39.7484 12.107L39.2941 12.5578L38.8399 13.0085L38.8861 14.4392C38.9115 15.226 39.0447 16.335 39.182 16.9036L39.4317 17.9373L38.862 18.5012L38.2924 19.0651L33.3669 19.1383C30.1796 19.1856 27.9211 19.1216 26.967 18.9568C26.156 18.8167 25.1935 18.6553 24.8282 18.5981L24.1639 18.4941L23.3212 19.4478C22.0221 20.9181 21.1381 22.5189 19.7982 25.8272C18.3885 29.3081 16.5583 34.4676 16.5583 34.9609C16.5583 35.1446 16.3811 35.4536 16.1646 35.6475L15.7709 36H9.58219H3.39357L3.46361 35.3077ZM36.1726 16.2426C36.2982 15.9204 36.3647 14.9993 36.3204 14.1957C36.2067 12.1347 36.223 12.142 31.7652 12.142H28.1097L27.716 12.4946L27.3223 12.8471V14.5821C27.3223 15.6476 27.422 16.4158 27.5806 16.5728C27.7633 16.7535 29.0266 16.8284 31.8916 16.8284H35.9442L36.1726 16.2426Z" fill="#B8B8B8"/>
</svg>
