<svg width="86" height="42" viewBox="0 0 86 42" fill="none" xmlns="http://www.w3.org/2000/svg">
<path d="M40.9505 41.8042C39.3831 41.5439 38.1203 40.5102 37.5437 39.0156C37.3141 38.4205 37.2622 38.1084 37.2642 37.3371C37.2663 36.4888 37.3414 36.138 37.6748 35.4188C38.0991 34.5035 38.7523 33.8156 39.6222 33.3678C40.1563 33.0929 40.5303 32.9772 41.116 32.9055C41.8275 32.8184 42.5882 32.9417 43.2862 33.2573C44.5054 33.8084 45.4147 34.9294 45.7572 36.3036C45.8469 36.6635 45.8627 36.8212 45.8627 37.3589C45.8627 37.9001 45.8471 38.0537 45.7545 38.427C45.3544 40.0397 44.1638 41.2887 42.6323 41.7023C42.1789 41.8248 41.3696 41.8738 40.9505 41.8042ZM38.0889 29.3698C38.2593 25.9405 38.5431 24.3396 39.2502 22.8193C39.9005 21.421 40.6726 20.5761 42.9964 18.7195C44.2035 17.7551 44.5174 17.4904 45.0664 16.9742C46.3497 15.7675 47.4725 14.063 47.8178 12.7973C48.187 11.4443 47.9517 10.3876 47.0786 9.47867C46.535 8.9127 45.8978 8.55735 44.9754 8.30573C43.7081 7.96004 41.7545 7.95505 40.5951 8.29453C38.5493 8.89355 37.2696 10.6494 37.0905 13.1031L37.0638 13.4678H33.1746H29.2853L29.3121 13.0863C29.5339 9.93185 30.1313 7.64176 31.2368 5.70754C31.8556 4.62479 32.7074 3.58493 33.5777 2.84984C34.6851 1.91441 36.2295 1.10381 37.7372 0.66664C41.3265 -0.37414 45.7925 -0.18347 49.0384 1.14913C52.5196 2.57835 54.7676 5.17889 55.5226 8.65033C55.9177 10.4673 55.8546 12.922 55.3735 14.4457C54.8633 16.0617 53.8879 17.4696 52.1428 19.1088C51.3865 19.8192 50.9102 20.2054 49.6619 21.1207C47.9933 22.3441 47.5217 22.7341 46.8712 23.4285C45.9253 24.438 45.4936 25.2796 45.2354 26.6175C45.0869 27.3872 44.9428 28.8583 44.9424 29.6095L44.9422 29.9038H41.5023H38.0624L38.0889 29.3698Z" fill="#B8B8B8"/>
<path d="M6.75354 33.4497C5.84614 33.2935 5.11502 32.6733 4.7812 31.7766C4.64829 31.4195 4.6182 31.2323 4.61935 30.7695C4.62062 30.2605 4.66409 30.05 4.85711 29.6185C5.10276 29.0693 5.48089 28.6566 5.98454 28.3879C6.29377 28.223 6.51025 28.1535 6.84935 28.1105C7.2613 28.0583 7.70168 28.1322 8.10578 28.3216C8.81162 28.6523 9.33806 29.3249 9.53637 30.1494C9.58831 30.3653 9.59744 30.46 9.59744 30.7826C9.59744 31.1073 9.58843 31.1995 9.53482 31.4234C9.30318 32.391 8.61386 33.1404 7.72721 33.3886C7.46474 33.4621 6.99618 33.4915 6.75354 33.4497ZM5.09686 25.9891C5.19551 23.9315 5.35982 22.971 5.76916 22.0588C6.14568 21.2198 6.59264 20.7128 7.938 19.5989C8.63685 19.0203 8.81862 18.8615 9.13644 18.5517C9.87938 17.8277 10.5294 16.805 10.7294 16.0456C10.9431 15.2338 10.8069 14.5998 10.3014 14.0544C9.98668 13.7148 9.61778 13.5016 9.08373 13.3507C8.35004 13.1432 7.21905 13.1402 6.54781 13.3439C5.36339 13.7033 4.62248 14.7569 4.51879 16.2291L4.50338 16.4479H2.25169H0L0.0155306 16.219C0.143953 14.3263 0.489785 12.9523 1.12981 11.7917C1.4881 11.1421 1.98125 10.5182 2.48508 10.0771C3.12623 9.51586 4.02034 9.0295 4.8932 8.7672C6.97124 8.14273 9.55683 8.25714 11.436 9.0567C13.4515 9.91423 14.7529 11.4746 15.19 13.5574C15.4188 14.6476 15.3822 16.1204 15.1037 17.0346C14.8083 18.0043 14.2436 18.849 13.2333 19.8325C12.7954 20.2587 12.5197 20.4905 11.797 21.0397C10.831 21.7737 10.5579 22.0077 10.1813 22.4243C9.63371 23.03 9.38379 23.535 9.23431 24.3377C9.1483 24.7996 9.06488 25.6822 9.06464 26.1329L9.06454 26.3095H7.07302H5.0815L5.09686 25.9891Z" fill="#B8B8B8"/>
<path d="M76.4803 33.4497C75.5729 33.2935 74.8418 32.6733 74.5079 31.7766C74.375 31.4195 74.3449 31.2323 74.3461 30.7695C74.3474 30.2605 74.3908 30.05 74.5839 29.6185C74.8295 29.0693 75.2076 28.6566 75.7113 28.3879C76.0205 28.223 76.237 28.1535 76.5761 28.1105C76.988 28.0583 77.4284 28.1322 77.8325 28.3216C78.5384 28.6523 79.0648 29.3249 79.2631 30.1494C79.3151 30.3653 79.3242 30.46 79.3242 30.7826C79.3242 31.1073 79.3152 31.1995 79.2616 31.4234C79.0299 32.391 78.3406 33.1404 77.454 33.3886C77.1915 33.4621 76.7229 33.4915 76.4803 33.4497ZM74.8236 25.9891C74.9223 23.9315 75.0866 22.971 75.4959 22.0588C75.8724 21.2198 76.3194 20.7128 77.6647 19.5989C78.3636 19.0203 78.5454 18.8615 78.8632 18.5517C79.6061 17.8277 80.2562 16.805 80.4561 16.0456C80.6699 15.2338 80.5336 14.5998 80.0282 14.0544C79.7134 13.7148 79.3445 13.5016 78.8105 13.3507C78.0768 13.1432 76.9458 13.1402 76.2746 13.3439C75.0901 13.7033 74.3492 14.7569 74.2455 16.2291L74.2301 16.4479H71.9784H69.7267L69.7423 16.219C69.8707 14.3263 70.2165 12.9523 70.8566 11.7917C71.2148 11.1421 71.708 10.5182 72.2118 10.0771C72.853 9.51586 73.7471 9.0295 74.6199 8.7672C76.698 8.14273 79.2836 8.25714 81.1628 9.0567C83.1782 9.91423 84.4797 11.4746 84.9168 13.5574C85.1455 14.6476 85.109 16.1204 84.8305 17.0346C84.5351 18.0043 83.9704 18.849 82.96 19.8325C82.5222 20.2587 82.2464 20.4905 81.5237 21.0397C80.5577 21.7737 80.2847 22.0077 79.9081 22.4243C79.3605 23.03 79.1105 23.535 78.9611 24.3377C78.875 24.7996 78.7916 25.6822 78.7914 26.1329L78.7913 26.3095H76.7998H74.8082L74.8236 25.9891Z" fill="#B8B8B8"/>
</svg>
