<svg width="86" height="18" viewBox="0 0 86 18" fill="none" xmlns="http://www.w3.org/2000/svg">
<path d="M15.8453 17.7098C14.1977 17.3508 13.0561 16.9994 12.7911 16.7695C12.5353 16.5474 12.5162 16.0112 12.7516 15.6594C12.8463 15.5179 13.5026 14.3829 14.21 13.1371L15.4961 10.872L15.4422 10.3664C15.4126 10.0883 15.3089 9.78437 15.2117 9.69105C15.0679 9.55294 14.1427 9.4105 12.7176 9.30703C12.6937 9.30527 12.708 9.17437 12.7494 9.01608L12.8246 8.72828L12.4299 8.79512C11.7387 8.91216 6.96734 10.0127 6.65006 10.1282C6.1334 10.3164 5.66199 10.9805 4.9249 12.5585L4.51693 13.4319L3.80066 13.7971C2.39486 14.5138 0.960016 15.0201 0.546083 14.9455L0.159847 14.8759L0.0801466 11.4801C0.0363097 9.61236 0.000345304 7.14032 0.000222786 5.98665L0 3.88907L2.488 3.53098L4.97601 3.17289L5.2513 2.92452L5.5266 2.67616L12.712 2.04576C16.6639 1.69905 20.115 1.39113 20.3812 1.36149L20.865 1.3076L21.1094 1.67582C21.3862 2.09292 21.7879 2.16307 21.8877 1.81174C21.9239 1.68396 22.222 1.22659 22.5501 0.795356L23.1466 0.0112959H23.6642C24.0012 0.0112959 24.2574 0.084071 24.3982 0.21986C24.7615 0.570009 25.2523 0.708237 26.1323 0.708237H26.9733L27.2152 0.940555C27.3482 1.06833 27.4571 1.30046 27.4571 1.45641C27.4571 1.61235 27.5115 1.77225 27.5781 1.81174C27.6511 1.85507 27.699 1.69678 27.699 1.41204V0.940555H33.1421H38.5851V0.650161C38.5851 0.417849 38.6456 0.359766 38.8875 0.359766C39.1294 0.359766 39.1899 0.417849 39.1899 0.650161V0.940555H39.9761H40.7623V1.29666C40.7623 1.49252 40.8187 1.75388 40.8875 1.87745L41.0127 2.10213H60.7891H80.5655L80.8571 1.91863C81.1254 1.74983 81.3787 1.19067 81.5767 0.33073C81.7057 -0.230082 82.3015 -0.0891407 83.7351 0.841388C84.1193 1.09076 84.623 1.49608 84.8544 1.74211C85.0913 1.99386 85.4337 2.21987 85.6376 2.25904L86 2.32863L85.9982 2.99944C85.9973 3.36838 85.9646 3.78457 85.9256 3.9243C85.8292 4.26949 85.2985 4.42527 84.219 4.42527H83.321L83.3613 4.62855L83.4015 4.83182L84.247 4.8899C85.2351 4.95777 85.3626 5.01948 85.5888 5.53921C85.8784 6.20491 85.8096 6.83278 85.4043 7.22198L85.0507 7.56152H74.2422H63.4336L62.7723 7.73958C62.4085 7.83752 61.4688 7.99497 60.684 8.08948L59.2571 8.26132L50.0398 8.21428C44.7818 8.18746 39.6284 8.10344 38.0424 8.01869L35.2622 7.87014L34.4411 8.30029L33.6199 8.73043L33.1045 8.56239C31.6414 8.08535 29.4492 7.8786 28.7112 8.14804C28.5276 8.21509 27.9933 8.66578 27.524 9.14958L26.6707 10.0292L26.0659 10.1366C25.7333 10.1956 24.7263 10.2911 23.8282 10.3488C22.9301 10.4065 21.9347 10.4877 21.6162 10.5292L21.0372 10.6046L19.7112 13.2249C18.9819 14.6661 18.3852 15.9546 18.3853 16.0883C18.3856 16.3407 18.6387 16.8376 19.0437 17.3802L19.2789 17.6954L19.0508 17.8555C18.7107 18.0944 17.3204 18.0311 15.8451 17.7098H15.8453ZM25.5201 9.30477C25.8085 9.15652 26.0392 8.48559 25.9367 8.09321C25.7962 7.55575 25.4746 7.44536 24.0491 7.44536C23.3352 7.44536 22.6186 7.5034 22.4564 7.57433C22.1651 7.70183 21.8931 8.1162 21.8931 8.4327C21.8931 8.73261 22.1597 9.16271 22.421 9.28418C22.7544 9.43921 25.2265 9.45564 25.5201 9.30477ZM79.6869 4.81135L81.4173 4.73707L81.2248 4.55213L81.0323 4.36719L72.1164 4.33185L63.2004 4.29651L62.9891 4.54721C62.8728 4.68509 62.8132 4.85314 62.8567 4.92064C62.9387 5.04815 76.1721 4.96221 79.6869 4.81131V4.81135Z" fill="#B8B8B8"/>
</svg>
