<svg width="86" height="23" viewBox="0 0 86 23" fill="none" xmlns="http://www.w3.org/2000/svg">
<path d="M63.5085 22.8568C63.4799 22.778 63.4563 22.4092 63.4563 22.0373C63.4563 21.3755 63.6133 20.8268 63.8025 20.8268C63.9021 20.8268 63.9161 20.4041 63.8187 20.3407C63.7815 20.3165 63.5805 19.849 63.372 19.3019L62.993 18.3072L61.8274 18.3219L60.6619 18.3366L60.6532 17.6121C60.6434 16.7871 60.7248 16.621 61.1834 16.5304L61.4787 16.4721V16.1592V15.8464H61.1378C60.7014 15.8464 60.6039 15.6663 60.6439 14.9346C60.6756 14.3549 60.7637 14.2204 61.1133 14.2179L61.3067 14.2169V13.1807V12.1444L61.0492 11.9843C60.7905 11.8233 60.7341 11.6644 60.6842 10.957L60.6618 10.6401H50.4786H40.2953L39.7155 11.4098C39.3966 11.8331 38.7615 12.7601 38.3042 13.4698L37.4726 14.7602H31.1687H24.8648L24.6726 15.1903C24.5669 15.4269 24.3078 15.9919 24.0969 16.446L23.7133 17.2716L23.8085 18.1926C23.8608 18.6992 23.9036 19.254 23.9036 19.4254V19.737L23.6672 19.7965C23.5371 19.8293 23.3889 19.8904 23.3379 19.9323C23.2868 19.9743 22.8781 20.0575 22.4296 20.1172L21.6141 20.2256L20.5878 19.7944C20.0233 19.5572 19.4705 19.2749 19.3593 19.167L19.1572 18.9708L19.2066 18.5249C19.2337 18.2796 19.2902 18.0555 19.332 18.0268C19.3739 17.9982 19.4358 17.6746 19.4695 17.3077L19.5308 16.6406L19.8803 16.0852C20.0725 15.7798 20.3348 15.3669 20.4631 15.1677C20.5915 14.9684 20.8577 14.4868 21.0547 14.0973L21.4128 13.3892L21.2825 12.9849C21.2108 12.7626 21.1521 12.5053 21.1521 12.4132V12.2458L20.2871 12.2093C19.6507 12.1824 19.4011 12.1377 19.3426 12.0403C19.2884 11.95 19.2627 11.9439 19.2618 12.021C19.261 12.0894 19.1431 12.1342 18.9639 12.1342C18.7301 12.1342 18.6224 12.1965 18.4552 12.4285C18.3386 12.5904 18.2157 12.8785 18.1822 13.0688C18.0799 13.6497 17.5143 14.1759 17.33 13.8618C17.2915 13.7962 16.6673 13.7916 15.8029 13.8505C15.7693 13.853 15.6726 13.9327 15.588 14.0279C15.5034 14.1232 14.1766 14.7579 12.6397 15.4383C11.1027 16.1188 9.30251 16.9169 8.63923 17.212C7.68518 17.6364 7.33943 17.7484 6.98404 17.7484H6.5348V18.507C6.5348 19.0709 6.56792 19.2945 6.66378 19.3783C6.84502 19.5367 6.82414 19.8886 6.62078 20.1027L6.44882 20.2838H5.29506C4.01069 20.2838 3.86929 20.2548 3.86929 19.9904V19.8069L2.05841 19.8491L0.247523 19.8914L0.123762 19.6394L0 19.3873V14.2638V9.14022L0.193465 9.06364C0.40962 8.97809 3.30274 8.90492 4.79362 8.9473C5.3284 8.96247 5.76094 8.93833 5.76094 8.89335C5.76094 8.84859 5.68034 8.7351 5.58183 8.64121L5.40272 8.47051L5.45484 8.1065C5.48351 7.9063 5.52183 7.60128 5.54001 7.42868C5.55923 7.24615 5.65232 7.04724 5.76251 6.95327L5.95196 6.79172L10.951 6.79272C13.7005 6.79372 15.9888 6.82402 16.0361 6.86064C16.2639 7.03693 16.3092 7.3201 16.2594 8.25836C16.2283 8.84465 16.1656 9.27203 16.1005 9.34046C16.0414 9.40265 15.9931 9.51215 15.9931 9.58377V9.71398L17.5623 9.65019C19.2755 9.58054 19.6123 9.50668 20.8942 8.91948C22.4073 8.22636 23.6389 7.5545 23.8176 7.32464C23.8413 7.29425 23.9767 7.20645 24.1186 7.12955C24.2604 7.05265 24.4677 6.90596 24.5792 6.80359C24.8712 6.53542 25.5381 6.36091 26.5495 6.28805C27.3553 6.22999 27.7022 6.1253 27.4129 6.02745C27.3508 6.00641 26.0425 5.96926 24.5055 5.94482C22.9685 5.92039 21.6433 5.87239 21.5605 5.83815L21.4101 5.7759L21.4107 4.44996L21.4113 3.12402L21.7501 2.92028L22.0889 2.71654H23.208H24.327L24.3517 1.87893L24.3764 1.04134H25.5372H26.698L26.7227 1.87893L26.7475 2.71654H29.4957H32.244V1.62543C32.244 0.824497 32.2789 0.463263 32.3752 0.267157L32.5064 0H33.6169C34.4123 0 34.7463 0.0321003 34.7942 0.113193C34.831 0.175446 34.8516 0.785723 34.84 1.46936L34.819 2.71234L38.1531 2.73708L41.4873 2.76182L42.3041 2.50141C42.7534 2.35818 43.2133 2.16463 43.3261 2.07129C43.4388 1.97796 43.5706 1.90158 43.6189 1.90158C43.6672 1.90158 43.8335 1.79972 43.9885 1.67521L44.2703 1.44883H46.5011H48.7319L48.8396 1.58546C48.9204 1.68799 48.9432 2.27545 48.9309 3.93979L48.9146 6.15749H67.2228H85.531L85.7655 6.35175L86 6.54601L85.9443 6.87242C85.9137 7.05194 85.8617 7.45705 85.8289 7.77265L85.7691 8.34647L75.0127 8.33506L64.2562 8.32359L64.2089 10.7154C64.1798 12.1878 64.1253 13.1789 64.0669 13.2937C63.9139 13.5949 63.9457 16.4812 64.1045 16.7023C64.1976 16.832 64.2164 16.9983 64.1749 17.3275L64.1184 17.776L64.2752 17.8967C64.3615 17.9632 64.4789 18.1504 64.536 18.3129C64.9508 19.4914 65.418 20.5655 65.6493 20.8721C65.8301 21.1118 65.941 21.3784 65.977 21.6604L66.0314 22.0866L65.8064 22.5433L65.5814 23H64.571H63.5606L63.5085 22.8568ZM10.0602 14.4943C10.1311 14.456 10.2015 14.3155 10.2166 14.1822L10.244 13.9397L9.05579 13.9649L7.86756 13.9901L7.84207 14.5002L7.81658 15.0103L8.22899 15.0926L8.64141 15.175L9.28629 14.8694C9.64098 14.7013 9.98921 14.5325 10.0602 14.4942L10.0602 14.4943ZM25.7953 13.3498C25.7953 13.3214 25.7372 13.237 25.6663 13.1623C25.5853 13.077 25.5373 12.8543 25.5373 12.5643V12.1023L25.3223 12.315C25.0704 12.5642 25.0473 12.873 25.2579 13.1779C25.388 13.3664 25.7953 13.4967 25.7953 13.3498V13.3498ZM27.6684 13.2261C28.0924 13.098 28.611 12.6252 28.6776 12.3062C28.7092 12.1545 28.7146 12.0088 28.6896 11.9824C28.6645 11.9561 28.2353 11.9638 27.7356 11.9997L26.8271 12.0649V12.5081C26.8271 13.2502 27.0261 13.42 27.6684 13.226L27.6684 13.2261Z" fill="#B8B8B8"/>
</svg>
