<svg width="45" height="37" viewBox="0 0 45 37" fill="none" xmlns="http://www.w3.org/2000/svg">
<path d="M28.7527 20.506L24.9287 19.0227L33.8505 14.4453C35.0222 13.6808 35.2857 12.156 34.4402 11.0419L31.9415 8.10912C31.5951 7.41648 30.8865 6.93576 30.0587 6.93576H9.78571C8.61915 6.93576 7.67396 7.88104 7.67396 9.04751C7.67396 10.2141 8.61923 11.1593 9.78571 11.1593H23.8915L14.4746 15.7529C14.4602 15.7597 14.4451 15.7681 14.4298 15.774L14.3631 15.8069L14.3673 15.8095C14.3563 15.8145 14.3471 15.8222 14.3369 15.8272C14.2694 15.8619 14.2035 15.8982 14.1392 15.9387C14.0675 15.9844 13.999 16.0326 13.9315 16.0857C13.8689 16.1348 13.8098 16.1837 13.7515 16.2386C13.6899 16.2969 13.6316 16.3593 13.5758 16.4235C13.5234 16.4843 13.4727 16.5468 13.4246 16.6144C13.3748 16.6846 13.3309 16.7589 13.2878 16.8349C13.2633 16.878 13.2328 16.9143 13.21 16.9582L10.844 21.7604L1.48296 26.0313C0.209162 26.6126 -0.351768 28.1161 0.22948 29.3892C0.655168 30.3217 1.57509 30.8724 2.53636 30.8724C2.88776 30.8724 3.24587 30.798 3.58632 30.6434L13.7693 25.9975C14.3014 25.7551 14.7322 25.3362 14.9907 24.8124L16.7308 21.2815L24.7277 24.3833L21.9401 33.5729C21.5347 34.9126 22.2907 36.3274 23.6296 36.7336C23.8753 36.808 24.1228 36.8435 24.3661 36.8435C25.4533 36.8435 26.4585 36.1383 26.7905 35.0442L30.2596 23.6062C30.6456 22.3357 29.9885 20.9859 28.7527 20.506Z" fill="#B8B8B8"/>
<path d="M32.9204 4.97021C32.9204 7.21888 34.7492 9.04849 36.9996 9.04849C39.249 9.04849 41.0719 7.21888 41.0719 4.97021C41.0719 2.71995 39.249 0.896179 36.9996 0.896179C34.7492 0.896179 32.9204 2.71995 32.9204 4.97021Z" fill="#B8B8B8"/>
<path d="M27.5404 0.844664C27.5404 0.377546 27.1629 0 26.6958 0H13.8139C13.3468 0 12.9692 0.377546 12.9692 0.844664C12.9692 1.31178 13.3468 1.68933 13.8139 1.68933H26.6957C27.162 1.68933 27.5404 1.31178 27.5404 0.844664Z" fill="#B8B8B8"/>
<path d="M8.53461 2.9649C8.06749 2.9649 7.68994 3.34245 7.68994 3.80957C7.68994 4.27669 8.06749 4.65423 8.53461 4.65423H21.4164C21.8835 4.65423 22.2611 4.27669 22.2611 3.80957C22.2611 3.34245 21.8835 2.9649 21.4164 2.9649H8.53461Z" fill="#B8B8B8"/>
<path d="M43.3915 16.2521H35.3051C34.838 16.2521 34.4604 16.6297 34.4604 17.0968C34.4604 17.5639 34.838 17.9415 35.3051 17.9415H43.3915C43.8586 17.9415 44.2362 17.5639 44.2362 17.0968C44.2363 16.6305 43.8587 16.2521 43.3915 16.2521Z" fill="#B8B8B8"/>
<path d="M40.0778 19.2171H31.9914C31.5243 19.2171 31.1467 19.5947 31.1467 20.0618C31.1467 20.529 31.5243 20.9065 31.9914 20.9065H40.0778C40.5449 20.9065 40.9225 20.529 40.9225 20.0618C40.9225 19.5947 40.5449 19.2171 40.0778 19.2171Z" fill="#B8B8B8"/>
</svg>
