<svg width="24" height="28" viewBox="0 0 24 28" fill="none" xmlns="http://www.w3.org/2000/svg">
<g clip-path="url(#clip0_1_221)">
<path d="M12 0C15.7875 0 18.8571 3.13359 18.8571 7C18.8571 10.8664 15.7875 14 12 14C8.2125 14 5.14286 10.8664 5.14286 7C5.14286 3.13359 8.2125 0 12 0ZM11.2018 19.6438L10.2054 17.9484C9.8625 17.3633 10.275 16.625 10.9393 16.625H12H13.0554C13.7196 16.625 14.1321 17.3688 13.7893 17.9484L12.7929 19.6438L14.5821 26.4195L16.6982 17.6039C20.8339 18.2602 24 21.9133 24 26.3211C24 27.2508 23.2607 28 22.3554 28H14.2018H9.79821H1.64464C0.739286 28 0 27.2453 0 26.3211C0 21.9133 3.16607 18.2602 7.30179 17.6039L9.41786 26.4195L11.2071 19.6438H11.2018Z" fill="white"/>
</g>
<defs>
<clipPath id="clip0_1_221">
<rect width="24" height="28" fill="white"/>
</clipPath>
</defs>
</svg>
