<svg width="28" height="28" viewBox="0 0 28 28" fill="none" xmlns="http://www.w3.org/2000/svg">
<path d="M0.875333 0H7.87533C8.16518 0 8.43861 0.147656 8.60268 0.388281L13.0378 7.03828C10.3308 7.2625 7.89721 8.43828 6.05971 10.2266L0.147989 1.36172C-0.0324796 1.09375 -0.0488859 0.749219 0.104239 0.464844C0.257364 0.180469 0.552677 0 0.875333 0ZM27.8527 1.36172L21.941 10.232C20.1089 8.44375 17.6699 7.26797 14.9628 7.04375L19.398 0.388281C19.5621 0.142187 19.8355 0 20.1253 0H27.1253C27.448 0 27.7433 0.175 27.8964 0.464844C28.0496 0.754688 28.0331 1.09375 27.8527 1.36172ZM23.6253 18.375C23.6253 23.6906 19.316 28 14.0003 28C8.68471 28 4.37533 23.6906 4.37533 18.375C4.37533 13.0594 8.68471 8.75 14.0003 8.75C19.316 8.75 23.6253 13.0594 23.6253 18.375ZM14.4597 13.1852C14.2738 12.8023 13.7324 12.8023 13.541 13.1852L12.316 15.668C12.2394 15.8211 12.0972 15.925 11.9331 15.9469L9.18783 16.3461C8.76674 16.4062 8.60268 16.9203 8.90346 17.2211L10.8886 19.157C11.0089 19.2773 11.0636 19.4414 11.0363 19.6109L10.566 22.3398C10.4949 22.7555 10.9324 23.0781 11.3097 22.8812L13.7597 21.5906C13.9074 21.5141 14.0878 21.5141 14.2355 21.5906L16.6855 22.8812C17.0628 23.0781 17.5003 22.7609 17.4292 22.3398L16.9589 19.6109C16.9316 19.4469 16.9863 19.2773 17.1066 19.157L19.0917 17.2211C19.398 16.9258 19.2285 16.4117 18.8074 16.3461L16.0675 15.9469C15.9035 15.925 15.7558 15.8156 15.6847 15.668L14.4597 13.1852V13.1852Z" fill="white"/>
</svg>
