<svg width="29" height="28" viewBox="0 0 29 28" fill="none" xmlns="http://www.w3.org/2000/svg">
<path d="M2.05904 0.229687C1.53404 -0.125781 0.834045 -0.0601563 0.385607 0.382812C-0.0628301 0.825781 -0.128455 1.53125 0.232482 2.05078L6.35748 10.9813L0.910607 12.7531C0.369201 12.9281 0.00279486 13.4313 0.00279486 14C0.00279486 14.5687 0.369201 15.0719 0.910607 15.2469L6.54889 17.0734L3.65592 22.575C3.38795 23.0836 3.48092 23.707 3.89108 24.1117C4.30123 24.5164 4.9192 24.6148 5.42779 24.3469L10.9294 21.4539L12.7559 27.0922C12.9309 27.6336 13.434 28 14.0028 28C14.5715 28 15.0747 27.6336 15.2497 27.0922L17.0762 21.4539L22.5778 24.3469C23.0864 24.6148 23.7098 24.5219 24.1145 24.1117C24.5192 23.7016 24.6176 23.0836 24.3497 22.575L21.4567 17.0734L27.095 15.2469C27.6364 15.0719 28.0028 14.5687 28.0028 14C28.0028 13.4313 27.6364 12.9281 27.095 12.7531L21.2708 10.8664L22.6762 7.01641C22.8512 6.53516 22.7309 5.99922 22.37 5.63828C22.009 5.27734 21.4731 5.15703 20.9919 5.33203L17.1419 6.7375L15.2497 0.907813C15.0747 0.366406 14.5715 0 14.0028 0C13.434 0 12.9309 0.366406 12.7559 0.907813L10.9895 6.35469L2.05904 0.229687Z" fill="white"/>
</svg>
