<svg width="64" height="58" viewBox="0 0 64 58" fill="none" xmlns="http://www.w3.org/2000/svg">
<path d="M53.36 0.681338C59.85 7.28134 64 17.3438 64 28.6188C64 39.8938 59.85 49.9688 53.36 56.5563C52.33 57.6063 50.82 57.4063 49.98 56.1188C49.14 54.8313 49.3 52.9438 50.33 51.8938C55.75 46.3938 59.2 38.0188 59.2 28.6188C59.2 19.2188 55.75 10.8438 50.33 5.33134C49.3 4.28134 49.15 2.39384 49.98 1.10634C50.81 -0.181162 52.33 -0.368662 53.36 0.668838V0.681338ZM47.31 9.99384C51.63 14.3938 54.4 21.1063 54.4 28.6188C54.4 36.1313 51.63 42.8438 47.31 47.2438C46.28 48.2938 44.77 48.0938 43.93 46.8063C43.09 45.5188 43.25 43.6313 44.28 42.5813C47.53 39.2813 49.6 34.2563 49.6 28.6188C49.6 22.9813 47.53 17.9563 44.28 14.6438C43.25 13.5938 43.1 11.7063 43.93 10.4188C44.76 9.13134 46.28 8.94384 47.31 9.98134V9.99384ZM41.26 19.3063C43.41 21.5063 44.8 24.8563 44.8 28.6188C44.8 32.3813 43.41 35.7313 41.26 37.9313C40.23 38.9813 38.72 38.7813 37.88 37.4938C37.04 36.2063 37.2 34.3188 38.23 33.2688C39.31 32.1688 40 30.4938 40 28.6188C40 26.7438 39.31 25.0688 38.23 23.9563C37.2 22.9063 37.05 21.0188 37.88 19.7313C38.71 18.4438 40.23 18.2563 41.26 19.2938V19.3063ZM30.11 0.968838C31.26 1.61884 32 3.04384 32 4.61884V52.6188C32 54.1938 31.26 55.6188 30.11 56.2688C28.96 56.9188 27.61 56.6563 26.67 55.6063L13.18 40.6188H6.4C2.87 40.6188 0 37.0313 0 32.6188V24.6188C0 20.2063 2.87 16.6188 6.4 16.6188H13.18L26.67 1.63134C27.61 0.581338 28.96 0.331338 30.11 0.968838V0.968838Z" fill="white"/>
</svg>
